<svg class="animated" id="freepik_stories-hide-and-seek-game" xmlns="http://www.w3.org/2000/svg" viewBox="0 0 500 500" version="1.1" xmlns:xlink="http://www.w3.org/1999/xlink" xmlns:svgjs="http://svgjs.com/svgjs"><style>svg#freepik_stories-hide-and-seek-game:not(.animated) .animable {opacity: 0;}svg#freepik_stories-hide-and-seek-game.animated #freepik--Bushes--inject-358 {animation: 1s 1 forwards cubic-bezier(.36,-0.01,.5,1.38) slideRight;animation-delay: 0s;}svg#freepik_stories-hide-and-seek-game.animated #freepik--Floor--inject-358 {animation: 1s 1 forwards cubic-bezier(.36,-0.01,.5,1.38) slideUp;animation-delay: 0s;}svg#freepik_stories-hide-and-seek-game.animated #freepik--Grass--inject-358 {animation: 1s 1 forwards cubic-bezier(.36,-0.01,.5,1.38) slideDown;animation-delay: 0s;}svg#freepik_stories-hide-and-seek-game.animated #freepik--Clouds--inject-358 {animation: 1s 1 forwards cubic-bezier(.36,-0.01,.5,1.38) slideDown;animation-delay: 0s;}svg#freepik_stories-hide-and-seek-game.animated #freepik--Shadows--inject-358 {animation: 1s 1 forwards cubic-bezier(.36,-0.01,.5,1.38) slideUp;animation-delay: 0s;}svg#freepik_stories-hide-and-seek-game.animated #freepik--character-1--inject-358 {animation: 1s 1 forwards cubic-bezier(.36,-0.01,.5,1.38) lightSpeedRight;animation-delay: 0s;}svg#freepik_stories-hide-and-seek-game.animated #freepik--character-3--inject-358 {animation: 1s 1 forwards cubic-bezier(.36,-0.01,.5,1.38) lightSpeedLeft;animation-delay: 0s;}svg#freepik_stories-hide-and-seek-game.animated #freepik--tree-1--inject-358 {animation: 1s 1 forwards cubic-bezier(.36,-0.01,.5,1.38) slideDown;animation-delay: 0s;}svg#freepik_stories-hide-and-seek-game.animated #freepik--tree-2--inject-358 {animation: 1s 1 forwards cubic-bezier(.36,-0.01,.5,1.38) slideDown;animation-delay: 0s;}svg#freepik_stories-hide-and-seek-game.animated #freepik--character-2--inject-358 {animation: 1s 1 forwards cubic-bezier(.36,-0.01,.5,1.38) slideUp;animation-delay: 0s;}svg#freepik_stories-hide-and-seek-game.animated #freepik--speech-bubble--inject-358 {animation: 1s 1 forwards cubic-bezier(.36,-0.01,.5,1.38) slideUp;animation-delay: 0s;}            @keyframes slideRight {                0% {                    opacity: 0;                    transform: translateX(30px);                }                100% {                    opacity: 1;                    transform: translateX(0);                }            }                    @keyframes slideUp {                0% {                    opacity: 0;                    transform: translateY(30px);                }                100% {                    opacity: 1;                    transform: inherit;                }            }                    @keyframes slideDown {                0% {                    opacity: 0;                    transform: translateY(-30px);                }                100% {                    opacity: 1;                    transform: translateY(0);                }            }                    @keyframes lightSpeedRight {              from {                transform: translate3d(50%, 0, 0) skewX(-20deg);                opacity: 0;              }              60% {                transform: skewX(10deg);                opacity: 1;              }              80% {                transform: skewX(-2deg);              }              to {                opacity: 1;                transform: translate3d(0, 0, 0);              }            }                    @keyframes lightSpeedLeft {              from {                transform: translate3d(-50%, 0, 0) skewX(20deg);                opacity: 0;              }              60% {                transform: skewX(-10deg);                opacity: 1;              }              80% {                transform: skewX(2deg);              }              to {                opacity: 1;                transform: translate3d(0, 0, 0);              }            }        </style><g id="freepik--Bushes--inject-358" class="animable" style="transform-origin: 250.554px 290.853px;"><g id="freepik--Bush--inject-358" class="animable" style="transform-origin: 250.554px 290.853px;"><path d="M475.93,336.77c6.58-4.69,6.53-16.84-1.83-19.44,5.77-5.78,4-18.22-4.33-19,2-5.1,1-12.09-5.52-13.38,2.08-6.25-3.71-10.59-9.52-8.35-.25-6.59-9.6-7-11.7-2.33.11-2.55-3.71-7.28-6.16-7.29,4.23-3.32,3.06-10-.57-10.85,4.94-3.75,2.29-12.3-3.61-12.22,4-6.24-4.49-12.76-9.73-10.84,3-7-10.92-12.59-13.92-5.16.12-.29-1.17-1.51-1.38-1.72a9.37,9.37,0,0,0-1.8-1.32,11.22,11.22,0,0,0-4.34-1.31,14.65,14.65,0,0,0-9.08,2.16,10.9,10.9,0,0,0-3.51,3.51,9.1,9.1,0,0,0-.94,2.23c-.28,1.1,0,2.17-.29,3.24a7.06,7.06,0,0,0-8.57,4.9,19.07,19.07,0,0,0-2-4.81,8.15,8.15,0,0,0-3.14-3c-1.4-.73-2.59-1.63-4.28-1.52,5-6.47-5.18-14-10.62-8.86-2.52-5.94-11.55-4.69-11,2.27-2-3.63-5.93-3.37-9.16-1.43-4.46,2.68-3.86,7.45-1.41,11.31-1.85-2.21-7.5-3.43-8.35.23a4.42,4.42,0,0,0-6.37-.73c-1.67-6-12.4-6.77-14.43.61-4.14-2.38-8.51,4.36-7.46,8.17l-46.74-.11v0h-7.36v0l-46.74.11c1-3.81-3.33-10.55-7.47-8.17-2-7.38-12.75-6.6-14.42-.61a4.42,4.42,0,0,0-6.37.73c-.86-3.66-6.5-2.44-8.35-.23,2.45-3.86,3.05-8.63-1.41-11.31-3.23-1.94-7.16-2.2-9.17,1.43.6-7-8.43-8.21-11-2.27-5.43-5.14-15.65,2.39-10.61,8.86-1.69-.11-2.89.79-4.29,1.52a8.12,8.12,0,0,0-3.13,3,18.74,18.74,0,0,0-2,4.81,7.06,7.06,0,0,0-8.57-4.9c-.3-1.07,0-2.14-.29-3.24a8.39,8.39,0,0,0-.94-2.23,10.71,10.71,0,0,0-3.51-3.51,14.63,14.63,0,0,0-9.08-2.16,11.22,11.22,0,0,0-4.34,1.31,9.3,9.3,0,0,0-1.79,1.32c-.22.21-1.5,1.43-1.38,1.72-3-7.43-16.89-1.85-13.92,5.16-5.25-1.92-13.69,4.6-9.73,10.84-5.91-.08-8.56,8.47-3.61,12.22C61.2,257,60,263.67,64.27,267c-2.45,0-6.28,4.74-6.16,7.29-2.11-4.64-11.45-4.26-11.7,2.33-5.81-2.24-11.6,2.1-9.53,8.35-6.55,1.29-7.56,8.28-5.51,13.38-8.36.77-10.1,13.21-4.34,19-8.35,2.6-8.4,14.75-1.82,19.44-4.36,2.07-4.79,12.17,2.31,15-.19.16-.36.34-.53.51-4.18,4.46-.69,11.8,5.42,11.8H468.72c6.11,0,9.6-7.34,5.43-11.8-.17-.17-.35-.35-.53-.51C480.71,348.94,480.28,338.84,475.93,336.77Z" style="fill: rgb(235, 235, 235); transform-origin: 250.569px 290.853px;" id="elck0yaxn4fof" class="animable"></path><g id="freepik--bush--inject-358" class="animable" style="transform-origin: 88.5796px 298.485px;"><path d="M86.62,247.79a6.68,6.68,0,0,1,9.45-.56,6.14,6.14,0,0,1,1.23,1.48,6.69,6.69,0,0,1,10.84,3.84,8,8,0,0,0-13.24,1.58,5.49,5.49,0,0,1,0-1.14,6.56,6.56,0,0,1,.9-2.58,5.92,5.92,0,0,0-.69-.73,7.94,7.94,0,0,0-9.2-1A5.26,5.26,0,0,1,86.62,247.79Z" style="fill: rgb(224, 224, 224); transform-origin: 97.025px 249.833px;" id="elxygbk7fsix" class="animable"></path><path d="M156.22,236.26a5.17,5.17,0,0,0-7.29-.44,5.7,5.7,0,0,0-1,1.15,5.15,5.15,0,0,0-8.35,3,6.15,6.15,0,0,1,10.21,1.22,5.25,5.25,0,0,0,0-.88,5.31,5.31,0,0,0-.7-2,4.68,4.68,0,0,1,.53-.56,6.14,6.14,0,0,1,7.1-.75A3.92,3.92,0,0,0,156.22,236.26Z" style="fill: rgb(224, 224, 224); transform-origin: 148.15px 237.857px;" id="els56j2k2qvvl" class="animable"></path><path d="M77.28,273.75c-.76-1.05-4.15-.63-5.24-.42a7.33,7.33,0,0,0-5.57,9.57,5.92,5.92,0,0,0-6.57,8.54c-4.31-1-10.92-.21-14.29,3.05-1.85,1.79-2.56,4.87-1.16,7-.26-.41-3.65-.44-6.45,1.29a6.44,6.44,0,0,0-2.88,5.1,10.62,10.62,0,0,0,2,6.42c-.22-.43-2.83,1.39-3.07,1.61a6.56,6.56,0,0,0-1.83,2.87,3.59,3.59,0,0,0,3.12,4.47A9.68,9.68,0,0,0,31,326.67a5.4,5.4,0,0,0-.48,5.29c1.12,2.17,3.77,3,6.15,3.56a6.72,6.72,0,0,0-1.69,6,4.65,4.65,0,0,0,4.78,3.53,6.44,6.44,0,0,0,3,11.88c-1.2-.08-2.11,2.42-2.41,3.21-.55,1.43-1.3,2.46-2,3.9h-6c-6.11,0-9.6-7.34-5.42-11.8.17-.17.34-.35.52-.51-7.09-2.79-6.66-12.89-2.3-15-6.58-4.69-6.53-16.84,1.82-19.44-5.76-5.78-4-18.22,4.34-19-2.05-5.1-1-12.09,5.52-13.38-2.08-6.25,3.71-10.59,9.52-8.35.25-6.59,9.59-7,11.7-2.33C58,271.73,61.82,267,64.27,267c-4.24-3.32-3.07-10,.57-10.85-5-3.75-2.3-12.3,3.61-12.22-3.15-5,1.53-10.08,6.22-11-1.7,1.89-3.25,4.42-2,7,1.1,2.33,4.11,2.74,6.1,3.72-4.73,1.6-6.91,6.35-3.38,10.52-4.83.6-5.45,7-3.52,9.62,1.19-1,3.65-1.26,5.45-.92,2.42.46,3.72,1.68,5.9,4.11C78.91,263.67,74.56,270,77.28,273.75Z" style="fill: rgb(224, 224, 224); transform-origin: 51.8296px 298.485px;" id="ellb9ta3tk8j" class="animable"></path></g><path d="M414.51,247.79a6.67,6.67,0,0,0-9.44-.56,6.42,6.42,0,0,0-1.24,1.48A6.68,6.68,0,0,0,393,252.55a8,8,0,0,1,13.24,1.58,5.49,5.49,0,0,0,0-1.14,6.73,6.73,0,0,0-.91-2.58,6.78,6.78,0,0,1,.69-.73,8,8,0,0,1,9.21-1A5.32,5.32,0,0,0,414.51,247.79Z" style="fill: rgb(224, 224, 224); transform-origin: 404.115px 249.833px;" id="el9a9xudwp124" class="animable"></path><path d="M344.92,236.26a5.16,5.16,0,0,1,7.28-.44,5.1,5.1,0,0,1,.95,1.15,5.16,5.16,0,0,1,8.36,3,6.15,6.15,0,0,0-10.21,1.22,4.37,4.37,0,0,1,0-.88,5.14,5.14,0,0,1,.7-2,4.76,4.76,0,0,0-.54-.56,6.12,6.12,0,0,0-7.09-.75A3.92,3.92,0,0,1,344.92,236.26Z" style="fill: rgb(224, 224, 224); transform-origin: 352.94px 237.857px;" id="elfc5ktmqn6pr" class="animable"></path><path d="M423.85,273.75c.77-1.05,4.16-.63,5.24-.42a7.33,7.33,0,0,1,5.58,9.57,5.92,5.92,0,0,1,6.56,8.54c4.31-1,10.93-.21,14.3,3.05,1.85,1.79,2.55,4.87,1.16,7,.26-.41,3.65-.44,6.44,1.29a6.41,6.41,0,0,1,2.88,5.1,10.49,10.49,0,0,1-2,6.42c.22-.43,2.84,1.39,3.07,1.61a6.58,6.58,0,0,1,1.84,2.87,3.59,3.59,0,0,1-3.13,4.47,9.63,9.63,0,0,1,4.31,3.39,5.38,5.38,0,0,1,.48,5.29c-1.12,2.17-3.77,3-6.14,3.56a6.78,6.78,0,0,1,1.69,6,4.67,4.67,0,0,1-4.79,3.53,6.44,6.44,0,0,1-3,11.88c1.2-.08,2.1,2.42,2.41,3.21.55,1.43,1.3,2.46,2,3.9h6c6.11,0,9.6-7.34,5.43-11.8-.17-.17-.35-.35-.53-.51,7.09-2.79,6.66-12.89,2.31-15,6.58-4.69,6.53-16.84-1.83-19.44,5.77-5.78,4-18.22-4.33-19,2-5.1,1-12.09-5.52-13.38,2.08-6.25-3.71-10.59-9.52-8.35-.25-6.59-9.6-7-11.7-2.33.11-2.55-3.71-7.28-6.16-7.29,4.23-3.32,3.06-10-.57-10.85,4.94-3.75,2.29-12.3-3.61-12.22,3.14-5-1.53-10.08-6.22-11,1.7,1.89,3.25,4.42,2,7-1.11,2.33-4.11,2.74-6.11,3.72,4.74,1.6,6.91,6.35,3.39,10.52,4.82.6,5.45,7,3.51,9.62-1.18-1-3.65-1.26-5.44-.92-2.42.46-3.73,1.68-5.9,4.11C422.22,263.67,426.58,270,423.85,273.75Z" style="fill: rgb(224, 224, 224); transform-origin: 449.31px 298.425px;" id="el2xur7ctk6g2" class="animable"></path></g></g><g id="freepik--Floor--inject-358" class="animable" style="transform-origin: 250.076px 361.24px;"><path id="freepik--floor--inject-358" d="M93.94,271.1c-86.23,49.78-86.22,130.5,0,180.28s226,49.78,312.26,0,86.22-130.5,0-180.28S180.17,221.32,93.94,271.1Z" style="fill: #00DD00; transform-origin: 250.076px 361.24px;" class="animable"></path><g id="freepik--floor--inject-358"><path d="M93.94,271.1c-86.23,49.78-86.22,130.5,0,180.28s226,49.78,312.26,0,86.22-130.5,0-180.28S180.17,221.32,93.94,271.1Z" style="fill: rgb(255, 255, 255); opacity: 0.6; transform-origin: 250.076px 361.24px;" class="animable" id="elr43gim4xm79"></path></g></g><g id="freepik--Grass--inject-358" class="animable" style="transform-origin: 241.161px 358.234px;"><g id="elptsv2u5nb1i"><g style="opacity: 0.4; transform-origin: 241.161px 358.234px;" class="animable" id="el8jg6gqqtuxu"><path d="M56.66,366.44A8,8,0,0,0,55.45,364a8.69,8.69,0,0,0-1.15-1.2c-.27-.23-.69-.62-1.07-.52-.11,0-.1.25,0,.32.25.34.63.56.85.93a4.8,4.8,0,0,1,.41,1,16.82,16.82,0,0,1,.82,2.7,19.79,19.79,0,0,1,.35,2.55c0,.43.06.85.11,1.27A4.59,4.59,0,0,0,56,372.2c0,.13.26.36.41.21a4.31,4.31,0,0,0,.77-3.1A10.77,10.77,0,0,0,56.66,366.44Z" style="fill: #00DD00; transform-origin: 55.1855px 367.361px;" id="elm2t2ucc3ulb" class="animable"></path><path d="M59.8,353.36C58,355.6,58,358.85,58,361.62c0,1.67,0,3.34,0,5s-.09,3.71.46,5.34c.06.19.44.57.57.22.53-1.46.33-3.4.36-4.94s0-3.28,0-4.92a38.72,38.72,0,0,1,.22-4.44c.16-1.39.48-2.75.65-4.14C60.27,353.57,60,353.13,59.8,353.36Z" style="fill: #00DD00; transform-origin: 59.1274px 362.809px;" id="elvvlbmjd4ei" class="animable"></path><path d="M64.05,362.21c-.94.18-1.62,1.25-2,2a9.73,9.73,0,0,0-.83,2.28,16.28,16.28,0,0,0-.4,2.7c-.08,1-.28,2.07.39,2.89.07.1.29.22.42.12.7-.59.52-1.75.58-2.58a19.44,19.44,0,0,1,.39-2.74,12.54,12.54,0,0,1,.75-2.24,9.79,9.79,0,0,0,.94-2.12C64.27,362.45,64.23,362.17,64.05,362.21Z" style="fill: #00DD00; transform-origin: 62.5095px 367.222px;" id="el94bpkkcdgwn" class="animable"></path><path d="M186.38,274.44a7.8,7.8,0,0,0-1.21-2.43A8.23,8.23,0,0,0,184,270.8c-.27-.23-.69-.62-1.07-.51-.11,0-.1.24,0,.32a12.34,12.34,0,0,1,.85.92,5,5,0,0,1,.41,1,17.14,17.14,0,0,1,.82,2.7,20,20,0,0,1,.35,2.55c0,.43.06.85.1,1.28a5.13,5.13,0,0,0,.3,1.15c0,.13.26.37.41.21a4.31,4.31,0,0,0,.77-3.1A10.77,10.77,0,0,0,186.38,274.44Z" style="fill: #00DD00; transform-origin: 184.916px 275.372px;" id="elgzn17zvhqja" class="animable"></path><path d="M189.52,261.36c-1.82,2.24-1.83,5.5-1.85,8.26,0,1.67,0,3.34.05,5s-.09,3.71.46,5.34c.06.19.44.57.57.22.53-1.46.33-3.4.36-4.94s0-3.28,0-4.92a38.83,38.83,0,0,1,.22-4.44c.16-1.39.48-2.75.65-4.14C190,261.58,189.71,261.13,189.52,261.36Z" style="fill: #00DD00; transform-origin: 188.825px 270.809px;" id="el4krq9o19bd8" class="animable"></path><path d="M193.77,270.21c-.94.18-1.62,1.25-2,2a9.73,9.73,0,0,0-.83,2.28,16.4,16.4,0,0,0-.4,2.71c-.08,1-.28,2.06.39,2.88.07.1.29.22.42.12.7-.59.52-1.75.58-2.58a19.44,19.44,0,0,1,.39-2.74,12.71,12.71,0,0,1,.75-2.23,10.09,10.09,0,0,0,.94-2.13C194,270.45,194,270.18,193.77,270.21Z" style="fill: #00DD00; transform-origin: 192.229px 275.223px;" id="elz43coqruba" class="animable"></path><path d="M315.24,449.92a6.92,6.92,0,0,0-1.06-2.12,7.24,7.24,0,0,0-1-1.06c-.23-.2-.59-.54-.93-.45-.1,0-.09.22,0,.28.22.3.55.49.74.81a3.82,3.82,0,0,1,.36.86,16.58,16.58,0,0,1,.72,2.37,18.66,18.66,0,0,1,.3,2.23c0,.38.05.74.09,1.11a5.27,5.27,0,0,0,.26,1c0,.11.23.31.36.18a3.74,3.74,0,0,0,.67-2.71A9.41,9.41,0,0,0,315.24,449.92Z" style="fill: #00DD00; transform-origin: 313.983px 450.724px;" id="eld5dbubt290s" class="animable"></path><path d="M318,438.48c-1.59,2-1.6,4.81-1.62,7.23,0,1.46,0,2.92.05,4.38a16.94,16.94,0,0,0,.39,4.67c.06.16.39.49.5.19a13.86,13.86,0,0,0,.32-4.32c0-1.44,0-2.87,0-4.31a35.87,35.87,0,0,1,.19-3.88c.14-1.22.42-2.41.57-3.62C318.4,438.67,318.15,438.28,318,438.48Z" style="fill: #00DD00; transform-origin: 317.39px 446.748px;" id="elf4wro84h4kh" class="animable"></path><path d="M321.71,446.22c-.83.16-1.42,1.1-1.79,1.79a8.8,8.8,0,0,0-.73,2,14.73,14.73,0,0,0-.35,2.37,3.39,3.39,0,0,0,.34,2.53c.07.08.26.19.37.1.61-.52.46-1.53.51-2.26a17.63,17.63,0,0,1,.34-2.39,11.3,11.3,0,0,1,.66-2,8.56,8.56,0,0,0,.82-1.86C321.9,446.44,321.86,446.19,321.71,446.22Z" style="fill: #00DD00; transform-origin: 320.309px 450.631px;" id="eloaaowliwwmd" class="animable"></path><path d="M268,393.78a7.12,7.12,0,0,1,1.11-2.22,7.81,7.81,0,0,1,1.05-1.1c.25-.22.62-.57,1-.47.11,0,.1.22.05.29-.23.31-.57.51-.78.84a5.63,5.63,0,0,0-.38.91,16,16,0,0,0-.74,2.47,18,18,0,0,0-.32,2.34c0,.39-.05.77-.1,1.16a4.75,4.75,0,0,1-.26,1.05c0,.13-.25.34-.38.19a3.85,3.85,0,0,1-.7-2.83A9.46,9.46,0,0,1,268,393.78Z" style="fill: #00DD00; transform-origin: 269.378px 394.632px;" id="el2bhp0d91t36" class="animable"></path><path d="M265.16,381.82c1.67,2.05,1.68,5,1.7,7.56,0,1.52,0,3.05-.05,4.57a18.15,18.15,0,0,1-.41,4.89c-.06.17-.41.51-.53.19a14.76,14.76,0,0,1-.33-4.51c0-1.5,0-3,0-4.5a36.67,36.67,0,0,0-.2-4.06c-.15-1.27-.44-2.52-.59-3.79C264.74,382,265,381.61,265.16,381.82Z" style="fill: #00DD00; transform-origin: 265.805px 390.461px;" id="el23qxnumr335" class="animable"></path><path d="M261.28,389.92c.86.16,1.48,1.14,1.87,1.87a8.83,8.83,0,0,1,.75,2.07,15,15,0,0,1,.37,2.48,3.53,3.53,0,0,1-.35,2.64c-.07.09-.28.2-.39.11-.64-.54-.48-1.6-.53-2.36a17.51,17.51,0,0,0-.36-2.5,10.75,10.75,0,0,0-.69-2.05,8.8,8.8,0,0,1-.85-1.94C261.08,390.14,261.12,389.89,261.28,389.92Z" style="fill: #00DD00; transform-origin: 262.74px 394.521px;" id="el15qk0yuc386" class="animable"></path><path d="M333.93,276.12a7.39,7.39,0,0,1,1.11-2.23,7.81,7.81,0,0,1,1-1.1c.25-.21.63-.57,1-.47.1,0,.09.22,0,.29-.23.31-.57.51-.78.85a4.73,4.73,0,0,0-.37.9,16.71,16.71,0,0,0-.75,2.47,18.53,18.53,0,0,0-.32,2.34c0,.39-.05.77-.09,1.16a5.49,5.49,0,0,1-.27,1.06c0,.12-.24.33-.38.19a3.86,3.86,0,0,1-.7-2.83A9.77,9.77,0,0,1,333.93,276.12Z" style="fill: #00DD00; transform-origin: 335.225px 276.965px;" id="eli0ftqxdf6uf" class="animable"></path><path d="M331.06,264.16c1.66,2,1.67,5,1.69,7.55,0,1.53,0,3.06-.05,4.58a18.11,18.11,0,0,1-.41,4.88c-.06.17-.41.52-.53.2a15.17,15.17,0,0,1-.33-4.52c0-1.5,0-3,0-4.5a36.67,36.67,0,0,0-.2-4.06c-.15-1.27-.44-2.52-.59-3.78C330.63,264.35,330.89,264,331.06,264.16Z" style="fill: #00DD00; transform-origin: 331.695px 272.81px;" id="elel8pjqtvk6" class="animable"></path><path d="M327.17,272.25c.86.16,1.49,1.15,1.87,1.87a9.6,9.6,0,0,1,.76,2.08,15.78,15.78,0,0,1,.37,2.48,3.55,3.55,0,0,1-.36,2.64c-.07.08-.27.2-.38.1-.65-.54-.49-1.6-.54-2.36a17.49,17.49,0,0,0-.35-2.5,12.35,12.35,0,0,0-.69-2.05,8.39,8.39,0,0,1-.86-1.94C327,272.47,327,272.22,327.17,272.25Z" style="fill: #00DD00; transform-origin: 328.635px 276.853px;" id="elk7orkajs07" class="animable"></path><path d="M422.53,353.85a7.08,7.08,0,0,0-1.06-2.13,7.63,7.63,0,0,0-1-1.05c-.24-.2-.6-.54-.93-.45-.1,0-.09.22-.05.28a9.59,9.59,0,0,1,.75.81,5,5,0,0,1,.36.86,16.28,16.28,0,0,1,.71,2.35,18.82,18.82,0,0,1,.3,2.24c0,.37.05.73.1,1.1a4.39,4.39,0,0,0,.25,1c0,.12.23.32.36.18a3.7,3.7,0,0,0,.67-2.7A9.27,9.27,0,0,0,422.53,353.85Z" style="fill: #00DD00; transform-origin: 421.244px 354.646px;" id="elucvxycj05u" class="animable"></path><path d="M425.27,342.43c-1.58,2-1.6,4.8-1.61,7.21,0,1.46,0,2.92,0,4.37a17.29,17.29,0,0,0,.4,4.66c0,.16.39.49.5.18a14,14,0,0,0,.31-4.3c0-1.44,0-2.87,0-4.3a35.83,35.83,0,0,1,.2-3.87c.14-1.21.41-2.4.56-3.61C425.68,342.62,425.43,342.23,425.27,342.43Z" style="fill: #00DD00; transform-origin: 424.637px 350.676px;" id="eli53hf47lg4" class="animable"></path><path d="M429,350.15c-.82.16-1.42,1.1-1.78,1.79a8.72,8.72,0,0,0-.73,2,14.57,14.57,0,0,0-.35,2.37,3.42,3.42,0,0,0,.34,2.52c.07.08.26.19.37.1.61-.52.46-1.53.51-2.25a15.81,15.81,0,0,1,.34-2.39,10.89,10.89,0,0,1,.65-1.95,8.3,8.3,0,0,0,.82-1.86C429.17,350.36,429.13,350.12,429,350.15Z" style="fill: #00DD00; transform-origin: 427.603px 354.556px;" id="el5lr574n5nh7" class="animable"></path><path d="M123,420.94a6.92,6.92,0,0,0-1.06-2.12,7.1,7.1,0,0,0-1-1.05c-.24-.21-.6-.54-.93-.45-.1,0-.09.21,0,.28.23.29.55.49.75.8a5.5,5.5,0,0,1,.36.87,15.91,15.91,0,0,1,.71,2.35,18.66,18.66,0,0,1,.3,2.23c0,.38,0,.74.1,1.11a4.39,4.39,0,0,0,.25,1c0,.11.23.32.36.18a3.72,3.72,0,0,0,.67-2.7A9.34,9.34,0,0,0,123,420.94Z" style="fill: #00DD00; transform-origin: 121.743px 421.746px;" id="elya5iv380ok" class="animable"></path><path d="M125.69,409.53c-1.58,2-1.6,4.79-1.61,7.21,0,1.45,0,2.91,0,4.36a17.22,17.22,0,0,0,.4,4.66c0,.16.39.49.5.19a14.08,14.08,0,0,0,.31-4.31c0-1.43,0-2.86,0-4.29a35.57,35.57,0,0,1,.2-3.87c.14-1.22.41-2.41.56-3.62C126.1,409.72,125.85,409.33,125.69,409.53Z" style="fill: #00DD00; transform-origin: 125.057px 417.773px;" id="elxlkublavzap" class="animable"></path><path d="M129.4,417.25c-.82.16-1.42,1.09-1.78,1.78a8.8,8.8,0,0,0-.73,2,14.45,14.45,0,0,0-.35,2.36,3.42,3.42,0,0,0,.34,2.52c.07.08.26.19.37.1.61-.51.46-1.52.51-2.25a16.18,16.18,0,0,1,.34-2.39,11.44,11.44,0,0,1,.65-1.95,8,8,0,0,0,.82-1.85C129.59,417.46,129.55,417.22,129.4,417.25Z" style="fill: #00DD00; transform-origin: 128.006px 421.646px;" id="elbs0fnh5n8wf" class="animable"></path></g></g></g><g id="freepik--Clouds--inject-358" class="animable" style="transform-origin: 259.669px 56.6784px;"><path id="freepik--Cloud--inject-358" d="M104.35,54.84a9,9,0,0,0-3-.55c-1-.07-1.26-.26-1.45-.47a7.06,7.06,0,0,0-8.48-2.51,5.42,5.42,0,0,0-6.39-3.61c.1-3-3.71-6.19-7.13-6.92s-6.14-.4-8,1.76c-2-3.92-9.86-5-14.11-2.95-2.44,1.19-4.52,2.41-5.53,4.65a9.33,9.33,0,0,0-.92,4.46c-1.66-1.46-5-1.86-7.19-1-2.38.92-2.56,2.72-2.68,4.55a8.33,8.33,0,0,0-4.34-.08c-1.51.44-2.37,1.62-2.17,2.58-1.19-.07-4,.89-3.69,2.15.36,1.41,3.6,1.26,4.81,1.22a23.82,23.82,0,0,0,3.38-.53,5.16,5.16,0,0,0,1.76.33c2.06,0,2.93-.9,3.26-1.66,1,2.11,4.58,3.73,7.11,4.37,4.76,1.22,11.5.48,14.44-3.08a5.16,5.16,0,0,0,1.42,1.73,8.14,8.14,0,0,0,4.4,1.78c2,.19,7.21.44,8.69-2.67,1,2.07,5.71,3,9.27,2.5a14.7,14.7,0,0,0,4-1.2,23.71,23.71,0,0,0,2.28-1.37,1.91,1.91,0,0,1,2-.13,11.67,11.67,0,0,0,7.76,0C105.8,57.35,106.21,55.68,104.35,54.84Z" style="fill: rgb(240, 240, 240); transform-origin: 67.3976px 49.8743px;" class="animable"></path><path id="freepik--cloud--inject-358" d="M466.33,49a8.64,8.64,0,0,0-3-.55c-1-.08-1.27-.27-1.45-.48a7.14,7.14,0,0,0-8.56-2.53,5.45,5.45,0,0,0-6.44-3.64c.1-3-3.74-6.24-7.19-7s-6.19-.41-8.07,1.76c-2-3.94-9.94-5.05-14.23-3-2.46,1.2-4.55,2.44-5.57,4.69a9.34,9.34,0,0,0-.93,4.49c-1.67-1.47-5-1.87-7.24-1-2.41.93-2.59,2.74-2.71,4.58a8.48,8.48,0,0,0-4.38-.08c-1.51.45-2.39,1.64-2.18,2.6-1.2-.06-4.05.9-3.72,2.17.36,1.42,3.63,1.28,4.84,1.23a24,24,0,0,0,3.41-.53,5.28,5.28,0,0,0,1.78.33c2.07,0,2.95-.9,3.29-1.67,1,2.13,4.62,3.76,7.17,4.41,4.8,1.23,11.59.48,14.55-3.11a5.25,5.25,0,0,0,1.43,1.74,8.26,8.26,0,0,0,4.44,1.8c2,.19,7.26.44,8.75-2.7,1.06,2.09,5.77,3,9.35,2.53a14.82,14.82,0,0,0,4-1.21A26.6,26.6,0,0,0,456,52.49a1.92,1.92,0,0,1,2-.14,11.66,11.66,0,0,0,7.82,0C467.79,51.5,468.21,49.83,466.33,49Z" style="fill: rgb(240, 240, 240); transform-origin: 429.087px 43.9403px;" class="animable"></path><path id="freepik--cloud--inject-358" d="M185,51.32a12.08,12.08,0,0,1,4.16-.66c1.35-.07,1.78-.33,2.05-.61a9.9,9.9,0,0,1,12-3.21c.88-3.19,4.84-5.88,9.1-4.83,0-4.19,5.41-8.54,10.23-9.43,4.62-.86,8.62-.35,11.16,2.74,2.95-5.41,14-6.67,19.88-3.61,3.38,1.75,6.24,3.54,7.58,6.72a12.93,12.93,0,0,1,1.13,6.27c2.38-2,7-2.42,10.11-1.14,3.31,1.38,3.49,3.9,3.59,6.47a11.67,11.67,0,0,1,6.09,0c2.09.68,3.26,2.36,2.94,3.69,1.67-.05,5.6,1.4,5.1,3.15-.56,2-5.09,1.64-6.78,1.54a31.29,31.29,0,0,1-4.72-.87,7.15,7.15,0,0,1-2.48.4c-2.89-.09-4.08-1.36-4.51-2.45-1.49,2.93-6.56,5.06-10.13,5.88-6.71,1.53-16.13.25-20.11-4.84A7.52,7.52,0,0,1,239.32,59a11.57,11.57,0,0,1-6.24,2.34c-2.75.18-10.11.34-12.07-4.07-1.54,2.86-8.12,4-13.09,3.18a20.9,20.9,0,0,1-5.53-1.83,32.1,32.1,0,0,1-3.15-2,2.69,2.69,0,0,0-2.73-.25c-3.45.94-7.42,1.26-10.87-.3C182.89,54.78,182.36,52.43,185,51.32Z" style="fill: rgb(240, 240, 240); transform-origin: 236.719px 46.0264px;" class="animable"></path><path id="freepik--cloud--inject-358" d="M489.16,78.36a6.84,6.84,0,0,0-2.29-.42c-.75-.06-1-.21-1.13-.37a5.48,5.48,0,0,0-6.58-1.95,4.2,4.2,0,0,0-5-2.8c.08-2.32-2.87-4.8-5.53-5.37s-4.76-.31-6.21,1.36c-1.56-3-7.65-3.89-10.95-2.28-1.9.92-3.51,1.87-4.29,3.61a7.21,7.21,0,0,0-.72,3.45,6.06,6.06,0,0,0-5.57-.77c-1.85.71-2,2.11-2.09,3.53a6.41,6.41,0,0,0-3.36-.06c-1.17.34-1.84,1.26-1.68,2-.93-.05-3.12.69-2.87,1.67s2.79,1,3.73.94a15.77,15.77,0,0,0,2.62-.41,4.07,4.07,0,0,0,1.37.26c1.6,0,2.27-.7,2.53-1.29.78,1.64,3.56,2.89,5.52,3.4,3.69.94,8.92.37,11.2-2.4A4.11,4.11,0,0,0,459,81.8a6.32,6.32,0,0,0,3.42,1.39c1.52.14,5.59.34,6.74-2.08.81,1.61,4.43,2.34,7.19,2a11.43,11.43,0,0,0,3.09-.94,18.82,18.82,0,0,0,1.77-1.06,1.48,1.48,0,0,1,1.52-.1,9,9,0,0,0,6,0C490.29,80.3,490.61,79,489.16,78.36Z" style="fill: rgb(245, 245, 245); transform-origin: 460.481px 74.5094px;" class="animable"></path></g><g id="freepik--Shadows--inject-358" class="animable" style="transform-origin: 248.905px 387.725px;"><g id="freepik--Shadow--inject-358"><ellipse cx="134.01" cy="342.09" rx="51.64" ry="29.82" style="fill: #00DD00; opacity: 0.3; transform-origin: 134.01px 342.09px;" class="animable" id="elmyrcrthsona"></ellipse></g><g id="freepik--shadow--inject-358"><ellipse cx="363.8" cy="398.7" rx="51.64" ry="29.82" style="fill: #00DD00; opacity: 0.3; transform-origin: 363.8px 398.7px;" class="animable" id="elalyooy1bvl"></ellipse></g><g id="freepik--shadow--inject-358"><ellipse cx="221.7" cy="440.09" rx="39.99" ry="23.09" style="fill: #00DD00; opacity: 0.3; transform-origin: 221.7px 440.09px;" class="animable" id="elw5dhks6cjvs"></ellipse></g></g><g id="freepik--character-1--inject-358" class="animable" style="transform-origin: 118.496px 276.991px;"><g id="freepik--Character--inject-358" class="animable" style="transform-origin: 118.496px 276.991px;"><g id="freepik--Bottom--inject-358" class="animable" style="transform-origin: 118.436px 306.763px;"><g id="freepik--bottom--inject-358" class="animable" style="transform-origin: 118.436px 306.763px;"><path d="M139.13,315.79c0,4.95-.21,11,.51,15.48l.14,1c-.88,3.86-6.12,5-6.78,2.7,0,0-3.17-11.05-5.82-20.32Z" style="fill: rgb(255, 189, 167); transform-origin: 133.48px 325.401px;" id="elrxadyebevt" class="animable"></path><path d="M117,314.69c-1.1,5.6-3,13-2.84,18.09a3.87,3.87,0,0,1-3.27,3.18c-2.3.47-4.32-1.93-4.36-2.26-.07-.5-.82-10.36-1.49-19Z" style="fill: rgb(255, 189, 167); transform-origin: 111.02px 325.355px;" id="elv60v5g6n5x" class="animable"></path><path d="M103.15,290.75c0-6.09.36-24.2,1-31l31.65.06,1.2,36.71a70.94,70.94,0,0,1,1.87,9.44c.56,4.93.51,17.35.51,17.35a7.89,7.89,0,0,1-4.68,2.14,10.53,10.53,0,0,1-4.73-.13s-2.37-7.52-3.73-12.19c-1.61-5.48-1.93-7-3.06-12C121.78,294.82,120,287,120,287l-2.12,13c.62,3.4.44,9.57-.4,14.41s-1.94,10.4-1.94,10.4a11,11,0,0,1-5.42.93c-3.67-.09-4.71-1.51-4.71-1.51s-1.62-17.77-2-24.19S103.15,290.75,103.15,290.75Z" style="fill: rgb(69, 90, 100); transform-origin: 121.257px 292.764px;" id="elrncwbgdi6mn" class="animable"></path><path d="M120,287c-1.16-4.68-2.75-12.23-2.75-12.23s-4.81,0-7.28-3.27c1.4,3.52,5.94,4.93,5.94,4.93l2.65,11.43L117.92,300Z" style="fill: rgb(55, 71, 79); transform-origin: 114.985px 285.75px;" id="el27lhrlucnoz" class="animable"></path><path d="M93.84,345.56a2.26,2.26,0,0,0,.52,2.27,9.75,9.75,0,0,0,7.19,1.33c3.52-.61,4.48-1.36,5.84-2.6s2.62-2.54,4.2-3,3.71-1.08,4.17-1.56.31-2.52.31-2.52Z" style="fill: rgb(38, 50, 56); transform-origin: 104.911px 344.419px;" id="elpo1lllsv97" class="animable"></path><path d="M114.34,330.72a.63.63,0,0,1,.62.46c.13.56.32,2.19.59,3.11a23.18,23.18,0,0,1,.48,5.93c-.15,1.06-3.2,1.84-4.72,2.49a14.75,14.75,0,0,0-4.22,2.92,10.89,10.89,0,0,1-6.44,2.67c-2.72.09-5.83-.66-6.59-1.9-.93-1.53-1.13-3,2.84-5.07.75-.39,3-1.87,3.95-2.49a16.74,16.74,0,0,0,2.72-2.26,10.35,10.35,0,0,0,1.54-1.89,5.32,5.32,0,0,0,.45-1.25,12.06,12.06,0,0,0,.32-1.35,1,1,0,0,1,.33-.68.87.87,0,0,1,.53-.06,14.32,14.32,0,0,1,2.74.49,1.69,1.69,0,0,1,.94.54,1.51,1.51,0,0,1,.21.75,5,5,0,0,0,.05.78.48.48,0,0,0,.12.26c.14.13.35,0,.47-.1a9.72,9.72,0,0,0,1-1.36c.18-.24,1-.43,1.27-.62a6.72,6.72,0,0,0,.67-.48C114.48,331.35,114.34,331,114.34,330.72Z" style="fill: rgb(55, 71, 79); transform-origin: 104.778px 339.514px;" id="eleueb3un9pz" class="animable"></path><path d="M107.09,345.63a21.87,21.87,0,0,1,1.82-1.52h0s-4.24,1.88-6.22.65a1.73,1.73,0,0,1-.71-2.18c0-.33-3.1-1.61-4.3-1.7h0l-.78.45c-4,2-3.77,3.54-2.84,5.07.76,1.24,3,2.13,6.55,2A11.15,11.15,0,0,0,107.09,345.63Z" style="fill: rgb(69, 90, 100); transform-origin: 101.201px 344.646px;" id="el1yfx4rafej4" class="animable"></path><path d="M102.27,341.61c-2.47,1.11-1.38,1.54-.67,1.61s4.17-2.12,6.67-4.27,4.86-4.6,5.83-5.42c.36-.31.74-.68,1.09-1-.09-.56-.17-1.06-.23-1.32-.11-.47-.68-.58-.68-.58l-.07.91a2,2,0,0,1-.69.5,3.45,3.45,0,0,0-1.22.7,9.72,9.72,0,0,1-1,1.36A28.7,28.7,0,0,1,102.27,341.61Z" style="fill: rgb(38, 50, 56); transform-origin: 107.964px 336.926px;" id="elcp57o4gni3t" class="animable"></path><path d="M101.76,342.84a.23.23,0,0,0,.16-.06.25.25,0,0,0,0-.35,6,6,0,0,0-4.68-1.63.25.25,0,0,0-.21.29.24.24,0,0,0,.28.2,5.57,5.57,0,0,1,4.24,1.47A.21.21,0,0,0,101.76,342.84Z" style="fill: rgb(240, 240, 240); transform-origin: 99.5089px 341.81px;" id="elw3pw368e7ra" class="animable"></path><path d="M103.91,341.51a.25.25,0,0,0,.16-.06.25.25,0,0,0,0-.35,6,6,0,0,0-4.65-1.73.25.25,0,0,0-.21.28.24.24,0,0,0,.28.21,5.58,5.58,0,0,1,4.2,1.56A.25.25,0,0,0,103.91,341.51Z" style="fill: rgb(240, 240, 240); transform-origin: 101.675px 340.433px;" id="elqqzdti85ox" class="animable"></path><path d="M105.88,340A.25.25,0,0,0,106,340a.26.26,0,0,0,0-.36,6,6,0,0,0-4.68-1.62.25.25,0,0,0-.21.28.24.24,0,0,0,.28.21,5.57,5.57,0,0,1,4.24,1.46A.25.25,0,0,0,105.88,340Z" style="fill: rgb(240, 240, 240); transform-origin: 103.59px 339.008px;" id="eljs98oyyde5k" class="animable"></path><path d="M107.62,338.67a.25.25,0,0,0,.16-.06.25.25,0,0,0,0-.35,6,6,0,0,0-4.61-1.82.24.24,0,0,0-.22.27.25.25,0,0,0,.27.23,5.52,5.52,0,0,1,4.17,1.64A.25.25,0,0,0,107.62,338.67Z" style="fill: rgb(240, 240, 240); transform-origin: 105.4px 337.553px;" id="elv77ltekszxs" class="animable"></path><path d="M109.49,337.09a.22.22,0,0,0,.15-.06.24.24,0,0,0,0-.35,6.1,6.1,0,0,0-5-1.82.25.25,0,0,0-.22.27.26.26,0,0,0,.28.22,5.71,5.71,0,0,1,4.6,1.64A.22.22,0,0,0,109.49,337.09Z" style="fill: rgb(240, 240, 240); transform-origin: 107.067px 335.959px;" id="elsokk9c6wl3" class="animable"></path><path d="M132.58,346.66a10.91,10.91,0,0,0,1.63,5.48,4,4,0,0,0,4.46,1.44c1.76-.42,4-1.55,4.44-3.65a12.59,12.59,0,0,0-.15-5.81Z" style="fill: rgb(38, 50, 56); transform-origin: 137.98px 348.948px;" id="elfqjmfhhdgqt" class="animable"></path><path d="M139.43,329.72c.62.18,1.28,3.35,1.79,6.63.54,3.51,1.23,4.57,1.71,7.44.54,3.29.32,4.39-.86,6.39s-5.49,3.95-7.71,1.11c-1.81-2.31-1.88-4.52-1.8-7.8a66.94,66.94,0,0,0-.23-7.83c-.21-2.46-1.18-4.68-.56-5,.06.36.79,3,1.28,2.71.21,0,.24-.38.18-1a1,1,0,0,1,.18-.8,1.39,1.39,0,0,1,.79-.34c.72-.13,1.69-.34,2.42-.41.42,0,.19,0,.61-.06a4.05,4.05,0,0,1,1.6,0c.23.11.25.32.31.55s.13.55.21.78.18.28.28.27.21-.44.19-.62,0-.49,0-.71S139.51,330.3,139.43,329.72Z" style="fill: rgb(55, 71, 79); transform-origin: 137.388px 341.218px;" id="elklvg260zl7" class="animable"></path><path d="M142.75,342.67c.08.47.51,3.43-.39,4s-1.58-1.85-1.58-1.85a9.31,9.31,0,0,0-5.68.74c.19.51-.29,2.19-1.23,1.84s-1.31-3.58-1.32-3.63c-.06,3.15,0,5.27,1.81,7.52,2.22,2.84,6.53.88,7.71-1.11s1.4-3.1.86-6.39C142.87,343.46,142.82,343,142.75,342.67Z" style="fill: rgb(69, 90, 100); transform-origin: 137.873px 347.692px;" id="el3fzn7vpdmxw" class="animable"></path><path d="M140.52,345c0,1.19,1.17.78,1.3-.89.19-2.51-.54-4.9-.6-7.79-.51-3.28-1.06-6.58-1.79-6.63,0,.57.25,1.87.25,1.87,0,.24.15.79.15.79.29,2.45,1,5.32,1,7.84C140.8,342.45,140.47,343.84,140.52,345Z" style="fill: rgb(38, 50, 56); transform-origin: 140.641px 337.686px;" id="el6rtny7uz619" class="animable"></path><path d="M135.49,345.52a20.14,20.14,0,0,1-1-3.71c-.31-2.2-1.39-6.08-1.95-8.48-.24-.92-.77-2.6-.78-2.62-.45.2-.43,1.45,0,2.94s.66,2.38.92,3.81c.7,2.83.87,5.83,1.32,7.47S135.76,346.69,135.49,345.52Z" style="fill: rgb(38, 50, 56); transform-origin: 133.478px 338.503px;" id="eltbqje8i9we7" class="animable"></path><path d="M135.2,345.58l.1,0a9,9,0,0,1,5.59-.57.25.25,0,0,0,.32-.18.26.26,0,0,0-.2-.31,9.41,9.41,0,0,0-6,.61.24.24,0,0,0-.11.34A.3.3,0,0,0,135.2,345.58Z" style="fill: rgb(240, 240, 240); transform-origin: 138.042px 344.935px;" id="elbqvxop4xod" class="animable"></path><path d="M134.41,343.22l.09,0a12.07,12.07,0,0,1,6.52-.72.25.25,0,1,0,.1-.49,12.41,12.41,0,0,0-6.87.75.26.26,0,0,0-.12.34A.29.29,0,0,0,134.41,343.22Z" style="fill: rgb(240, 240, 240); transform-origin: 137.714px 342.524px;" id="el15a3g6juzq9" class="animable"></path><path d="M141.34,340.55a.25.25,0,0,0,.22-.17.25.25,0,0,0-.17-.32c-3.29-1-7.54.42-7.67.49a.24.24,0,0,0-.11.34.28.28,0,0,0,.37.1s4.19-1.41,7.24-.45A.25.25,0,0,0,141.34,340.55Z" style="fill: rgb(240, 240, 240); transform-origin: 137.575px 340.364px;" id="elk3muxa4r0kb" class="animable"></path><path d="M140.75,338.42a.28.28,0,0,0,.23-.16.27.27,0,0,0-.17-.33,10.44,10.44,0,0,0-7.38.74.23.23,0,0,0-.08.34.29.29,0,0,0,.37.09,10.09,10.09,0,0,1,6.92-.69A.22.22,0,0,0,140.75,338.42Z" style="fill: rgb(240, 240, 240); transform-origin: 137.148px 338.351px;" id="elurjplsvd8k" class="animable"></path><path d="M140.47,335.83a.27.27,0,0,0,.22-.17.25.25,0,0,0-.17-.32c-3.39-1.17-7.29.73-7.42.8a.24.24,0,0,0-.09.35.28.28,0,0,0,.37.09s3.82-1.85,7-.77A.3.3,0,0,0,140.47,335.83Z" style="fill: rgb(235, 235, 235); transform-origin: 136.835px 335.788px;" id="el5ny3t9l2b5s" class="animable"></path></g></g><g id="freepik--Top--inject-358" class="animable" style="transform-origin: 118.496px 238.429px;"><path d="M101.86,231.6l4.88,8.63-.36,14.31-11.21-1.66s-.12-4.85.06-9C95.49,238.18,95,234,101.86,231.6Z" style="fill: rgb(69, 90, 100); transform-origin: 100.935px 243.07px;" id="ell7q6u9csf" class="animable"></path><path d="M134.77,253.06a128.72,128.72,0,0,0-3.17-13.2c-2.35-8.37-3.79-12.28-7.51-13.38l-12,2c-7.4,1.61-10.18,3.16-10.18,3.16-1.67,1.83-2.37,6.2-1.08,14.11,1.65,10,2.43,8.78,2.14,21.07,5.4,6.43,25.38,4.61,33.71-2.76C136.63,264,136.24,260.44,134.77,253.06Z" style="fill: #00DD00; transform-origin: 118.421px 248.618px;" id="elgmgqcl7pfhv" class="animable"></path><path d="M100.77,219.84a7.83,7.83,0,0,1-.25-.78,16.81,16.81,0,0,1-.39-3.88,10,10,0,0,1-2.74-.15,4,4,0,0,1-2.33-1.37c-.43-.56-.6-1.47,0-1.91a4.47,4.47,0,0,1-1.91-.95,2.17,2.17,0,0,1-.71-1.93A1.44,1.44,0,0,1,94,207.73a2.82,2.82,0,0,1-1.18-2.91,1.18,1.18,0,0,1,.31-.62,1.67,1.67,0,0,1,1.08-.3A14.08,14.08,0,0,0,99,202.78c1.21-.52,2.33-1.21,3.54-1.73a16.52,16.52,0,0,1,4-.8,10.3,10.3,0,0,1,3.82.37,11,11,0,0,1,3.36,1.4,8.88,8.88,0,0,1,1.35,1.08c.18.19.82,1.24,1,1.27,7.2,1.24,4.86,12.43,1.2,18.76-1.34,2.31-5.51,1.94-7.81,1.56a24.37,24.37,0,0,1-5-1.39,6.41,6.41,0,0,1-2.58-1.66A5.43,5.43,0,0,1,100.77,219.84Z" style="fill: rgb(38, 50, 56); transform-origin: 106.586px 212.59px;" id="elhr3zbvxdv6" class="animable"></path><path d="M97.88,218.08c.22,1.28.14,1.83.56,3.88a8,8,0,0,0,2.67,4.78,7.84,7.84,0,0,0,6.15,1.25l.52-.1.3,2c-2.46,4.73,6.9,4.74,10-1.94-.23-1.45-1.64-9.31-1.71-9.34a2.22,2.22,0,0,0,2.33-.48,3.4,3.4,0,0,0,1-2.26,3.07,3.07,0,0,0-.61-2.24,1.81,1.81,0,0,0-2.15-.49,4.52,4.52,0,0,0-1.13,1.25,1.46,1.46,0,0,1-1.45.68c-1.11-.33-.68-2.62-.58-3.45a4.44,4.44,0,0,1-3.15-1.23,5,5,0,0,1-1.33-3.14,17.49,17.49,0,0,1-5.38,3,13.64,13.64,0,0,1-6.09.36.51.51,0,0,0-.5.1.48.48,0,0,0-.07.21,10.8,10.8,0,0,0-.3,2.4A28.61,28.61,0,0,0,97.88,218.08Z" style="fill: rgb(255, 189, 167); transform-origin: 108.341px 220.24px;" id="elhcumg9x2k3k" class="animable"></path><path d="M107.27,216a1.07,1.07,0,1,0,.91-1.25A1.09,1.09,0,0,0,107.27,216Z" style="fill: rgb(38, 50, 56); transform-origin: 108.325px 215.81px;" id="el7gh7vonp02h" class="animable"></path><path d="M109.13,213.11l-2.12-.42a1.08,1.08,0,1,1,2.12.42Z" style="fill: rgb(38, 50, 56); transform-origin: 108.081px 212.464px;" id="el6otupbppxq9" class="animable"></path><path d="M101.13,213.78,99.27,215a1.1,1.1,0,0,1,1.86-1.19Z" style="fill: rgb(38, 50, 56); transform-origin: 100.113px 214.15px;" id="elsy3lmvfxn1j" class="animable"></path><path d="M108.77,220.75l-3.07,1.67a1.72,1.72,0,0,0,2.35.77A1.84,1.84,0,0,0,108.77,220.75Z" style="fill: rgb(177, 102, 104); transform-origin: 107.337px 222.069px;" id="elu4px7g02vdc" class="animable"></path><path d="M109,221.78a1.39,1.39,0,0,0-.61-.06,1.41,1.41,0,0,0-1.16,1.61s0,0,0,0a1.67,1.67,0,0,0,.84-.19A1.81,1.81,0,0,0,109,221.78Z" style="fill: rgb(242, 143, 143); transform-origin: 108.106px 222.52px;" id="elre15oilbf0g" class="animable"></path><path d="M100,217.41a1.07,1.07,0,1,0,.91-1.25A1.1,1.1,0,0,0,100,217.41Z" style="fill: rgb(38, 50, 56); transform-origin: 101.055px 217.22px;" id="elfjnkk3xspct" class="animable"></path><polygon points="104.67 214.33 105.56 219.89 102.27 219.55 104.67 214.33" style="fill: rgb(240, 153, 122); transform-origin: 103.915px 217.11px;" id="el9hhc51r4n3b" class="animable"></polygon><path d="M107.78,227.87a15.52,15.52,0,0,0,6-3.09,7.15,7.15,0,0,0,1.88-2.83,6.14,6.14,0,0,1-.8,3c-1.81,2.86-6.85,4.15-6.85,4.15Z" style="fill: rgb(240, 153, 122); transform-origin: 111.72px 225.525px;" id="elxrovdsmsusd" class="animable"></path><path d="M142.68,258.68c-.16-2-.49-5.57-1-9.31-.57-4.19-.91-4.76-2.63-9.2a110.76,110.76,0,0,0-4.75-10s-4.16-5.57-9.93-3.44c0,1.76-.65,2.28.79,6.16s7.18,14.25,7.18,14.25,3,10,3.11,11.94c.24,2.5-.9,3.89-1.47,6.64-.3,1.43-.55,2.88-.82,4.33a1.32,1.32,0,0,0,0,.28.56.56,0,0,0,.57.41c.7,0,1.38-.94,1.67-1.58.21-.46.34-1,.53-1.45a3.69,3.69,0,0,1,.35-.72c.23-.31.36.11.4.39a16.11,16.11,0,0,1,.21,4.1,15.11,15.11,0,0,0-.06,3.08,2.08,2.08,0,0,0,.33,1,.87.87,0,0,0,1.49.12c.05.41.71,1.15,1.39.93s1-1.45,1-1.45c.23.2,1,.13,1.47-.77a7.41,7.41,0,0,0,.66-2.39s1.22-.11,1.37-2.62a20.52,20.52,0,0,0-.37-5.22C143.91,262.57,142.84,260.64,142.68,258.68Z" style="fill: rgb(255, 189, 167); transform-origin: 134.399px 251.447px;" id="elk5gbv2js2s" class="animable"></path><path d="M124.09,226.48c-.37,1.53-1.08,4,2.66,11.06,2.94,5.54,4.14,7.44,4.14,7.44s2,.66,5-1.1a14.42,14.42,0,0,0,3.8-3.07l-3.93-8.58C134.56,229.74,131.09,224.2,124.09,226.48Z" style="fill: rgb(69, 90, 100); transform-origin: 131.736px 235.521px;" id="elw9ntydbi2q" class="animable"></path><path d="M110.79,251.1a4.33,4.33,0,0,1-.85-1.65.22.22,0,0,0,0-.11c0-.06-.15,0-.23,0a9,9,0,0,0-1.86,1.2,4.79,4.79,0,0,1-1.54.79,4.45,4.45,0,0,1-1.36.12c-1.27,0-2.54,0-3.81,0-3.32.12-4.69.62-5.92,1.43,0,5.66,1.13,6.81,1.67,7.23s4.42.59,8.42-.35a21,21,0,0,0,3.93-1.12,6,6,0,0,0,1.37-.84,4.54,4.54,0,0,0,1-1.61,6.52,6.52,0,0,0,.81-1.83,3.61,3.61,0,0,0-1-2.53C111.17,251.58,111,251.34,110.79,251.1Z" style="fill: rgb(255, 189, 167); transform-origin: 103.82px 254.88px;" id="elubm6e70e1ad" class="animable"></path><g id="freepik--Arm--inject-358" class="animable" style="transform-origin: 108.001px 250.696px;"><g id="freepik--Hand--inject-358" class="animable" style="transform-origin: 108.001px 250.696px;"><path d="M108.53,257.53s-1.36-1.6-1.77-2.13a5.46,5.46,0,0,1-1-1.6,2.54,2.54,0,0,1,0-1.52.62.62,0,0,0,0-.23c0-.15-.16-.26-.29-.36a2,2,0,0,1-.76-1.17,1.26,1.26,0,0,1,.48-1.24,1.54,1.54,0,0,1,0-2.24.33.33,0,0,0,.09-.11.25.25,0,0,0,0-.12,3.69,3.69,0,0,1-.07-1.05.82.82,0,0,1,.12-.43,2.53,2.53,0,0,1,.81-.53c.38-.21.79-.39,1.18-.58a2,2,0,0,1,1.92-.2l1.34.42c.31.1.68.25.73.55s-.32.56-.64.72c.45.08.65.19.64.41a.91.91,0,0,1-.65.8c.42,0,.58.09.63.26s0,.68-.54,1a.6.6,0,0,1,.46.13.7.7,0,0,1,.06.6,1.66,1.66,0,0,1-.41.73,14.75,14.75,0,0,1-1.54,1.11,2.25,2.25,0,0,0-.9,1.66Z" style="fill: rgb(255, 189, 167); transform-origin: 108.001px 250.696px;" id="el22sjrv52ojv" class="animable"></path><path d="M108.53,257.53c-1.1-1.76-3.22-3.3-2.68-5.51,0-.09-.07-.14-.17-.21a2.15,2.15,0,0,1-.4-.37h-.54s1,.49.83.92c-.59,1.92,1.65,3.73,3,5.17Z" style="fill: rgb(240, 153, 122); transform-origin: 106.655px 254.485px;" id="el98ootd4xgx5" class="animable"></path><path d="M105.4,246.93c1-.51,1.95-1.39,3.17-1.33l.73,0,1.48.08a7.86,7.86,0,0,0-3-.33,6.26,6.26,0,0,0-2.41,1.55Z" style="fill: rgb(240, 153, 122); transform-origin: 108.075px 246.126px;" id="elu2f4k0rsgad" class="animable"></path><path d="M105.26,249.28c.83-.58,1.57-1.3,2.44-1.81a21.62,21.62,0,0,1,3.07-.55,9.08,9.08,0,0,0-3.24.31,10.62,10.62,0,0,0-2.27,2.05Z" style="fill: rgb(240, 153, 122); transform-origin: 108.015px 248.084px;" id="eldb78uii7w4k" class="animable"></path><path d="M105.83,252.05a9.06,9.06,0,0,1,1.92-2.52,15.58,15.58,0,0,1,1.53-.7c.53-.22,1.06-.44,1.58-.68a15.73,15.73,0,0,0-3.3,1.15,5.73,5.73,0,0,0-1.73,2.75Z" style="fill: rgb(240, 153, 122); transform-origin: 108.345px 250.1px;" id="eln8u49i1kp1" class="animable"></path></g></g><path d="M109.68,250.53s0,0,0,.05a3.29,3.29,0,0,0-1.09,1.49,3.13,3.13,0,0,0,.14,2,6,6,0,0,1,.13,1.63s0,.05,0,.05a14.58,14.58,0,0,0-.4-1.83,2.55,2.55,0,0,1,1.23-3.39Z" style="fill: rgb(240, 153, 122); transform-origin: 108.955px 253.14px;" id="el7fq63t4a6r5" class="animable"></path></g></g></g><g id="freepik--character-3--inject-358" class="animable" style="transform-origin: 371.43px 329.569px;"><g id="freepik--character--inject-358" class="animable" style="transform-origin: 371.43px 329.569px;"><g id="freepik--bottom--inject-358" class="animable" style="transform-origin: 379.812px 359.318px;"><g id="freepik--bottom--inject-358" class="animable" style="transform-origin: 379.812px 359.318px;"><path d="M359.13,368.34c0,5,.2,11-.51,15.47l-.14,1c.87,3.85,6.11,5,6.78,2.69l5.81-20.31Z" style="fill: rgb(255, 189, 167); transform-origin: 364.775px 377.938px;" id="el1b2fx442v1g" class="animable"></path><path d="M381.21,367.24c1.11,5.6,3,13,2.84,18.09a3.87,3.87,0,0,0,3.28,3.17c2.29.47,4.3-1.92,4.35-2.26.07-.5.82-10.35,1.49-19Z" style="fill: rgb(255, 189, 167); transform-origin: 387.19px 377.9px;" id="elbr8uk185wy5" class="animable"></path><path d="M395.09,343.32c0-6.09-.36-24.2-1-31l-31.64.06-1.19,36.69a70.94,70.94,0,0,0-1.87,9.44c-.56,4.93-.51,17.34-.51,17.34a7.89,7.89,0,0,0,4.68,2.14,10.69,10.69,0,0,0,4.72-.13s2.37-7.52,3.73-12.18c1.61-5.48,1.92-7,3.06-12,1.44-6.37,3.19-14.2,3.19-14.2l2.12,13c-.63,3.4-.45,9.57.39,14.4s1.94,10.4,1.94,10.4a11,11,0,0,0,5.42.93c3.67-.1,4.7-1.51,4.7-1.51s1.63-17.76,2-24.18S395.09,343.32,395.09,343.32Z" style="fill: rgb(69, 90, 100); transform-origin: 376.992px 345.284px;" id="elh3935qtvox" class="animable"></path><path d="M378.21,339.55c1.16-4.67,2.75-12.22,2.75-12.22s4.8,0,7.27-3.26c-1.4,3.52-5.93,4.93-5.93,4.93l-2.65,11.42.68,12.1Z" style="fill: rgb(55, 71, 79); transform-origin: 383.22px 338.295px;" id="el1py8zhqz2dj" class="animable"></path><path d="M404.39,398.1a2.26,2.26,0,0,1-.52,2.27,9.71,9.71,0,0,1-7.19,1.32c-3.51-.6-4.47-1.35-5.84-2.6s-2.61-2.54-4.19-3-3.71-1.08-4.17-1.56-.3-2.51-.3-2.51Z" style="fill: rgb(38, 50, 56); transform-origin: 393.328px 396.956px;" id="elviw0ezzf9o" class="animable"></path><path d="M383.9,383.26a.64.64,0,0,0-.62.46c-.13.56-.32,2.19-.59,3.11a23.18,23.18,0,0,0-.48,5.93c.16,1.06,3.2,1.83,4.72,2.49a14.75,14.75,0,0,1,4.22,2.92,10.87,10.87,0,0,0,6.43,2.66c2.73.1,5.83-.66,6.59-1.89.94-1.53,1.13-3-2.84-5.07-.75-.39-3.05-1.87-3.94-2.48a17.91,17.91,0,0,1-2.73-2.26,11,11,0,0,1-1.53-1.89,5.66,5.66,0,0,1-.45-1.25,13.2,13.2,0,0,1-.32-1.35A1,1,0,0,0,392,384a.81.81,0,0,0-.53-.07,14.32,14.32,0,0,0-2.74.49,1.64,1.64,0,0,0-.93.55,1.46,1.46,0,0,0-.22.74,5.16,5.16,0,0,1-.05.79.45.45,0,0,1-.12.25c-.14.13-.35,0-.47-.1a11.44,11.44,0,0,1-1-1.35c-.18-.25-1-.43-1.27-.63a8.12,8.12,0,0,1-.67-.48C383.76,383.9,383.9,383.59,383.9,383.26Z" style="fill: rgb(55, 71, 79); transform-origin: 393.459px 392.049px;" id="elr72nkpqfom" class="animable"></path><path d="M391.15,398.17a20.07,20.07,0,0,0-1.82-1.52h0s4.24,1.88,6.21.65a1.74,1.74,0,0,0,.72-2.18c0-.33,3.09-1.61,4.3-1.7h0l.77.45c4,2,3.78,3.54,2.84,5.07-.76,1.23-3,2.13-6.54,2A11.21,11.21,0,0,1,391.15,398.17Z" style="fill: rgb(69, 90, 100); transform-origin: 397.036px 397.186px;" id="elackk2v4gak9" class="animable"></path><path d="M396,394.15c2.47,1.11,1.38,1.54.67,1.61s-4.17-2.12-6.66-4.27-4.86-4.59-5.82-5.42c-.36-.31-.75-.68-1.09-1,.09-.55.16-1.05.22-1.32.11-.46.68-.58.68-.58l.08.91a2,2,0,0,0,.68.51,3.17,3.17,0,0,1,1.22.7,11.44,11.44,0,0,0,1,1.35A28.78,28.78,0,0,0,396,394.15Z" style="fill: rgb(38, 50, 56); transform-origin: 390.316px 389.466px;" id="el72v9p01h5zj" class="animable"></path><path d="M396.47,395.38a.22.22,0,0,1-.15-.06.23.23,0,0,1,0-.35,6,6,0,0,1,4.68-1.63.25.25,0,0,1,.21.28.25.25,0,0,1-.29.21,5.54,5.54,0,0,0-4.23,1.47A.26.26,0,0,1,396.47,395.38Z" style="fill: rgb(240, 240, 240); transform-origin: 398.726px 394.349px;" id="elpqijh1e0m8" class="animable"></path><path d="M394.33,394.05a.25.25,0,0,1-.16-.06.24.24,0,0,1,0-.35,6,6,0,0,1,4.64-1.73.25.25,0,1,1-.06.49,5.57,5.57,0,0,0-4.2,1.56A.25.25,0,0,1,394.33,394.05Z" style="fill: rgb(240, 240, 240); transform-origin: 396.582px 392.974px;" id="elp4c6xvvv9di" class="animable"></path><path d="M392.35,392.56a.22.22,0,0,1-.15-.06.26.26,0,0,1,0-.36,6,6,0,0,1,4.68-1.62.25.25,0,0,1,.21.28.24.24,0,0,1-.28.21,5.53,5.53,0,0,0-4.24,1.47A.28.28,0,0,1,392.35,392.56Z" style="fill: rgb(240, 240, 240); transform-origin: 394.61px 391.528px;" id="el0alihvwvxwx9" class="animable"></path><path d="M390.62,391.21a.25.25,0,0,1-.16-.06.25.25,0,0,1,0-.35A6,6,0,0,1,395,389a.25.25,0,0,1,0,.5,5.52,5.52,0,0,0-4.17,1.64A.25.25,0,0,1,390.62,391.21Z" style="fill: rgb(240, 240, 240); transform-origin: 392.819px 390.104px;" id="el4agy4p1a0yg" class="animable"></path><path d="M388.75,389.63a.22.22,0,0,1-.15-.06.24.24,0,0,1,0-.35,6.1,6.1,0,0,1,5-1.82.25.25,0,0,1-.06.5,5.68,5.68,0,0,0-4.6,1.64A.23.23,0,0,1,388.75,389.63Z" style="fill: rgb(240, 240, 240); transform-origin: 391.172px 388.499px;" id="elab0q74fitp" class="animable"></path><path d="M365.67,399.2a11,11,0,0,1-1.62,5.47,4,4,0,0,1-4.47,1.45c-1.75-.43-4-1.55-4.43-3.66a12.55,12.55,0,0,1,.15-5.8Z" style="fill: rgb(38, 50, 56); transform-origin: 360.276px 401.488px;" id="elacs54npftsr" class="animable"></path><path d="M358.83,382.27c-.62.18-1.29,3.35-1.79,6.62-.54,3.51-1.23,4.56-1.71,7.44-.54,3.29-.32,4.39.85,6.38s5.49,4,7.71,1.12c1.81-2.32,1.88-4.52,1.8-7.81a66.84,66.84,0,0,1,.23-7.82c.21-2.46,1.18-4.67.56-4.95-.06.36-.79,3-1.27,2.72-.22,0-.25-.39-.18-1a1,1,0,0,0-.18-.79,1.32,1.32,0,0,0-.8-.34,24.44,24.44,0,0,0-2.42-.41c-.42,0-.18,0-.61-.07a3.82,3.82,0,0,0-1.59.05c-.23.1-.26.31-.32.54s-.13.55-.21.78-.17.28-.27.27-.21-.43-.19-.62,0-.48,0-.71S358.74,382.84,358.83,382.27Z" style="fill: rgb(55, 71, 79); transform-origin: 360.867px 393.769px;" id="el169re8up6ln" class="animable"></path><path d="M355.51,395.21c-.08.47-.51,3.43.39,4s1.58-1.85,1.58-1.85a9.28,9.28,0,0,1,5.67.74c-.18.5.29,2.19,1.23,1.83s1.31-3.58,1.32-3.62c.06,3.15-.05,5.27-1.81,7.52-2.22,2.84-6.53.87-7.71-1.12s-1.39-3.09-.85-6.38C355.39,396,355.44,395.5,355.51,395.21Z" style="fill: rgb(69, 90, 100); transform-origin: 360.38px 400.23px;" id="el0oalkdfgvvqj" class="animable"></path><path d="M357.74,397.57c-.05,1.19-1.17.78-1.3-.9-.2-2.5.53-4.89.6-7.78.5-3.27,1.06-6.57,1.79-6.62,0,.57-.26,1.86-.26,1.86,0,.24-.14.8-.14.8-.29,2.44-1.05,5.31-1,7.83C357.45,395,357.78,396.38,357.74,397.57Z" style="fill: rgb(38, 50, 56); transform-origin: 357.618px 390.261px;" id="elefwi1fd057" class="animable"></path><path d="M362.76,398.06a21.3,21.3,0,0,0,1-3.71c.3-2.2,1.38-6.08,1.94-8.47.25-.93.78-2.6.78-2.63.45.21.43,1.46,0,2.94s-.66,2.39-.92,3.81c-.7,2.83-.87,5.83-1.32,7.46S362.49,399.23,362.76,398.06Z" style="fill: rgb(38, 50, 56); transform-origin: 364.767px 391.039px;" id="elmqf4nsu21jn" class="animable"></path><path d="M363.05,398.12a.19.19,0,0,1-.1,0,9.06,9.06,0,0,0-5.58-.56.25.25,0,1,1-.13-.49,9.41,9.41,0,0,1,6,.61.24.24,0,0,1,.11.34A.29.29,0,0,1,363.05,398.12Z" style="fill: rgb(240, 240, 240); transform-origin: 360.216px 397.481px;" id="elpbptz1gdp4" class="animable"></path><path d="M363.84,395.76l-.08,0a12,12,0,0,0-6.52-.72.26.26,0,0,1-.32-.19.26.26,0,0,1,.21-.3,12.41,12.41,0,0,1,6.87.75.25.25,0,0,1,.12.34A.28.28,0,0,1,363.84,395.76Z" style="fill: rgb(240, 240, 240); transform-origin: 360.531px 395.064px;" id="ell1y9f3qzjj" class="animable"></path><path d="M356.92,393.09a.27.27,0,0,1-.23-.17.27.27,0,0,1,.18-.32c3.29-1,7.53.42,7.67.49a.24.24,0,0,1,.1.34.27.27,0,0,1-.36.1s-4.19-1.4-7.25-.45A.21.21,0,0,1,356.92,393.09Z" style="fill: rgb(240, 240, 240); transform-origin: 360.679px 392.903px;" id="el214nbynstjb" class="animable"></path><path d="M357.5,391a.25.25,0,0,1-.22-.16.25.25,0,0,1,.17-.32,10.43,10.43,0,0,1,7.37.73.23.23,0,0,1,.09.34.3.3,0,0,1-.38.09,10.07,10.07,0,0,0-6.91-.69A.25.25,0,0,1,357.5,391Z" style="fill: rgb(240, 240, 240); transform-origin: 361.109px 390.936px;" id="elxvqpm5b5pz" class="animable"></path><path d="M357.79,388.37a.25.25,0,0,1-.05-.49c3.38-1.16,7.28.73,7.41.8a.24.24,0,0,1,.09.35.28.28,0,0,1-.37.09s-3.81-1.85-7-.77A.25.25,0,0,1,357.79,388.37Z" style="fill: rgb(235, 235, 235); transform-origin: 361.42px 388.33px;" id="eldqlbhf0jpsl" class="animable"></path></g></g><g id="freepik--top--inject-358" class="animable" style="transform-origin: 371.43px 288.074px;"><path d="M405.12,280.6a2.87,2.87,0,0,1-.45,1.81A3.59,3.59,0,0,1,407,285.8a5.58,5.58,0,0,1-1.8,3.91c-4.31,4.19-12.1,2.24-15.66-1.9a9.22,9.22,0,0,1-2.41-6.09,6.16,6.16,0,0,1,3.32-5.43,13.62,13.62,0,0,1,11.36.28,6.58,6.58,0,0,1,2.75,2.36A3.8,3.8,0,0,1,405.12,280.6Z" style="fill: rgb(38, 50, 56); transform-origin: 397.065px 283.615px;" id="elemp2ojx5jun" class="animable"></path><path d="M396.38,284.2l-4.88,8.62.36,14.3,11.2-1.66s.12-4.85-.06-9C402.74,290.77,403.26,286.58,396.38,284.2Z" style="fill: rgb(69, 90, 100); transform-origin: 397.3px 295.66px;" id="elmk1d40kmb3r" class="animable"></path><path d="M363.48,305.65a131.46,131.46,0,0,1,3.17-13.2c2.35-8.36,3.79-12.27,7.51-13.38l12,2c7.39,1.61,10.18,3.16,10.18,3.16,1.66,1.83,2.37,6.19,1.07,14.1-1.64,10-2.43,8.77-2.13,21.06-5.4,6.43-25.37,4.61-33.69-2.76C361.63,316.6,362,313,363.48,305.65Z" style="fill: rgb(250, 250, 250); transform-origin: 379.836px 301.198px;" id="elfxrnu6dr76c" class="animable"></path><path d="M398.23,272.74a8.83,8.83,0,0,0,5.27-3.19,7.48,7.48,0,0,0,1.51-4.24c0-1.58-.64-2.55-1.36-3.89-2-9.87-17.37-11.09-21.49-4.44-7.19,1.24-5.81,12.27-1,17.9,1.75,2,5.26,2.79,7.56,2.41a24.37,24.37,0,0,0,5-1.39,8.09,8.09,0,0,0,2.11-1.08,7.36,7.36,0,0,0,1-.92c.11-.13.62-1,.7-1.06Z" style="fill: rgb(38, 50, 56); transform-origin: 391.084px 265.103px;" id="eldd0hmejacfs" class="animable"></path><path d="M400.35,270.68c-.21,1.29-.13,1.83-.55,3.88a8,8,0,0,1-2.68,4.78,7.81,7.81,0,0,1-6.14,1.25l-.52-.11-.3,2c2.46,4.73-6.73,4.94-9.86-1.72l1.43-9.12s-.83.93-2.51,0a3.23,3.23,0,0,1-.71-4.26,2,2,0,0,1,2.47-.8c1.35.54.92,2.38,1.92,2.36s1.6-1.8,1.85-2.64c.94-3.21,2.38-5.23,4.21-5.85a5.7,5.7,0,0,1,6.38,2.24c2.43-2.42,6.07-.84,5.9,3.22A27.64,27.64,0,0,1,400.35,270.68Z" style="fill: rgb(255, 189, 167); transform-origin: 389.625px 273.055px;" id="elb3rl842idnj" class="animable"></path><path d="M391,268.59a1.07,1.07,0,1,1-.91-1.25A1.1,1.1,0,0,1,391,268.59Z" style="fill: rgb(38, 50, 56); transform-origin: 389.945px 268.4px;" id="eljajbqro4vys" class="animable"></path><path d="M389.11,265.72l2.12-.43a1.08,1.08,0,1,0-2.12.43Z" style="fill: rgb(38, 50, 56); transform-origin: 390.159px 265.071px;" id="elfrwegj9mr1" class="animable"></path><path d="M397.11,266.38l1.85,1.19a1.1,1.1,0,0,0-1.85-1.19Z" style="fill: rgb(38, 50, 56); transform-origin: 398.117px 266.73px;" id="eliqch0au8xc" class="animable"></path><path d="M389.47,273.35l3.07,1.67a1.72,1.72,0,0,1-2.35.77A1.84,1.84,0,0,1,389.47,273.35Z" style="fill: rgb(177, 102, 104); transform-origin: 390.903px 274.669px;" id="el2e28dn2csli" class="animable"></path><path d="M389.27,274.38a1.39,1.39,0,0,1,.61-.06,1.41,1.41,0,0,1,1.16,1.61s0,0,0,.05a1.65,1.65,0,0,1-.84-.19A1.79,1.79,0,0,1,389.27,274.38Z" style="fill: rgb(242, 143, 143); transform-origin: 390.164px 275.145px;" id="elsbwn3kdhw4q" class="animable"></path><path d="M398.21,270a1.07,1.07,0,1,1-.9-1.25A1.08,1.08,0,0,1,398.21,270Z" style="fill: rgb(38, 50, 56); transform-origin: 397.156px 269.809px;" id="ely08vqx1iyff" class="animable"></path><polygon points="393.57 266.94 392.68 272.49 395.96 272.15 393.57 266.94" style="fill: rgb(240, 153, 122); transform-origin: 394.32px 269.715px;" id="elnflu8whakem" class="animable"></polygon><path d="M390.46,280.47a15.52,15.52,0,0,1-5.95-3.09,7.11,7.11,0,0,1-1.87-2.83,6.14,6.14,0,0,0,.8,3c1.8,2.85,6.84,4.14,6.84,4.14Z" style="fill: rgb(240, 153, 122); transform-origin: 386.55px 278.12px;" id="el0dni826jwd84" class="animable"></path><path d="M353.33,311.58c1.57-1.19,4.43-3.41,7.3-5.86,3.23-2.74,3.51-3.35,6.28-7.26a106.12,106.12,0,0,0,5.77-9.6s3.1-6.17,1-9.4c-3.18-.4-6.1-.69-8.55,2.67s-7.95,14-7.95,14-6.79,8-8.31,9.16c-2,1.55-3.8,1.27-6.45,2.23-1.38.5-2.75,1-4.12,1.57a1.08,1.08,0,0,0-.26.14.56.56,0,0,0,0,.72c.39.63,1.57.74,2.28.66.51-.06,1-.22,1.53-.3a3.71,3.71,0,0,1,.81-.08c.39,0,.11.38-.1.57a15.06,15.06,0,0,1-3.35,2.37,14.66,14.66,0,0,0-2.63,1.6,1.94,1.94,0,0,0-.63.8,1,1,0,0,0,.75,1.4,1.29,1.29,0,0,0,0,1.74c.56.48,1.8.11,1.8.11,0,.31.46,1,1.49.9a6.88,6.88,0,0,0,2.4-.68s.79,1,3-.17a19.36,19.36,0,0,0,4.2-3.12C350.75,314.75,351.77,312.77,353.33,311.58Z" style="fill: rgb(255, 189, 167); transform-origin: 355.135px 299.477px;" id="el0ykk26knahs" class="animable"></path><path d="M336.71,317c2-1.88,4.83-2.65,6.94-4.42-1.88,2.08-4.71,2.85-6.94,4.42Z" style="fill: rgb(240, 153, 122); transform-origin: 340.18px 314.79px;" id="elso5zb416y6" class="animable"></path><path d="M338.52,318.85c-.13-.81.71-1.3,1.34-1.6a22.11,22.11,0,0,0,5.47-3.54,13.34,13.34,0,0,1-5.39,3.73c-.62.27-1.44.61-1.42,1.41Z" style="fill: rgb(240, 153, 122); transform-origin: 341.918px 316.28px;" id="elayq2ohpmd4h" class="animable"></path><path d="M342.4,319.08c-.61-1.42,1.41-2,2.22-2.67a12.42,12.42,0,0,0,2.9-2.34c-.91,1.68-2.8,2.58-4.37,3.53-.52.3-1,.84-.75,1.48Z" style="fill: rgb(240, 153, 122); transform-origin: 344.903px 316.575px;" id="elu4gpnkmv49l" class="animable"></path><path d="M374.16,279.07c-7.4-1.86-8.25-.13-12.07,7-3,5.59-3.92,7.68-3.92,7.68s.61,2.17,3.76,3.84a14.89,14.89,0,0,0,4.77,1.76s3.45-5.56,5-8.09C373.16,288.87,376.1,283.48,374.16,279.07Z" style="fill: rgb(69, 90, 100); transform-origin: 366.486px 288.863px;" id="elqfaik0axa6" class="animable"></path><path d="M387.45,303.68a4.22,4.22,0,0,0,.85-1.64.26.26,0,0,1,.05-.12c0-.06.15,0,.23,0a8.56,8.56,0,0,1,1.86,1.2,4.89,4.89,0,0,0,1.54.79,5.18,5.18,0,0,0,1.36.12c1.27,0,2.54,0,3.81,0,3.32.11,4.69.62,5.91,1.42,0,5.66-1.13,6.81-1.66,7.23s-4.42.59-8.43-.35a20.42,20.42,0,0,1-3.92-1.12,6,6,0,0,1-1.37-.84,4.46,4.46,0,0,1-1-1.61,6.81,6.81,0,0,1-.81-1.83,3.69,3.69,0,0,1,1-2.53C387.07,304.17,387.27,303.93,387.45,303.68Z" style="fill: rgb(255, 189, 167); transform-origin: 394.465px 307.455px;" id="elbma8v8tquk" class="animable"></path><g id="freepik--arm--inject-358" class="animable" style="transform-origin: 390.203px 303.303px;"><g id="freepik--hand--inject-358" class="animable" style="transform-origin: 390.203px 303.303px;"><path d="M389.71,310.11s1.36-1.6,1.77-2.13a5.46,5.46,0,0,0,.95-1.6,2.51,2.51,0,0,0,0-1.51.67.67,0,0,1,0-.24c0-.15.16-.26.29-.36a2.07,2.07,0,0,0,.76-1.16,1.23,1.23,0,0,0-.49-1.24,1.53,1.53,0,0,0,0-2.24.48.48,0,0,1-.09-.11.25.25,0,0,1,0-.12,3.72,3.72,0,0,0,.07-1,.82.82,0,0,0-.12-.43,2.58,2.58,0,0,0-.82-.53c-.37-.21-.78-.39-1.17-.58a2,2,0,0,0-1.92-.21l-1.34.43c-.31.1-.68.25-.73.54s.32.57.64.73c-.45.08-.65.19-.64.41a.91.91,0,0,0,.65.8c-.42,0-.58.09-.63.25s0,.68.54,1a.57.57,0,0,0-.46.12.73.73,0,0,0-.06.61,1.66,1.66,0,0,0,.41.73,14.75,14.75,0,0,0,1.54,1.11,2.23,2.23,0,0,1,.9,1.65Z" style="fill: rgb(255, 189, 167); transform-origin: 390.185px 303.303px;" id="elsnwbs505m9o" class="animable"></path><path d="M389.71,310.11c1.1-1.76,3.22-3.3,2.68-5.5,0-.1.07-.14.16-.22A2.11,2.11,0,0,0,393,304h.54s-1,.48-.83.92c.59,1.91-1.65,3.72-3,5.16Z" style="fill: rgb(240, 153, 122); transform-origin: 391.625px 307.055px;" id="elqsw6n6qxkrr" class="animable"></path><path d="M392.84,299.52c-1-.52-1.95-1.39-3.17-1.33l-.73,0-1.48.08a7.86,7.86,0,0,1,3-.33,6.26,6.26,0,0,1,2.41,1.55Z" style="fill: rgb(240, 153, 122); transform-origin: 390.165px 298.716px;" id="elw5naa1v5uaa" class="animable"></path><path d="M393,301.87c-.82-.58-1.56-1.3-2.43-1.82a21.62,21.62,0,0,0-3.07-.54,9.08,9.08,0,0,1,3.24.31,10.09,10.09,0,0,1,2.26,2.05Z" style="fill: rgb(240, 153, 122); transform-origin: 390.25px 300.674px;" id="el2sbmavuoi99" class="animable"></path><path d="M392.41,304.63a9.06,9.06,0,0,0-1.92-2.52,15.59,15.59,0,0,0-1.53-.69c-.53-.22-1.06-.44-1.58-.68a15.73,15.73,0,0,1,3.3,1.15,5.71,5.71,0,0,1,1.73,2.74Z" style="fill: rgb(240, 153, 122); transform-origin: 389.895px 302.685px;" id="elotowzosyg3a" class="animable"></path></g></g><path d="M388.56,303.11s0,.05,0,.06a3.24,3.24,0,0,1,1.09,1.49,3.1,3.1,0,0,1-.14,2,6,6,0,0,0-.13,1.64.05.05,0,0,0,0,0,14.35,14.35,0,0,1,.4-1.84A2.86,2.86,0,0,0,390,305,2.9,2.9,0,0,0,388.56,303.11Z" style="fill: rgb(240, 153, 122); transform-origin: 389.289px 305.705px;" id="elzytijpbseyc" class="animable"></path></g></g></g><g id="freepik--tree-1--inject-358" class="animable" style="transform-origin: 143.006px 186.582px;"><g id="freepik--Tree--inject-358" class="animable" style="transform-origin: 143.006px 186.582px;"><path d="M132.59,158.47c-.27,8.88,11.14,15.14,20.25,12.54-.05,5.34,7.68,7.65,10.39,4.66-2.6,4.19-6.26,17,2.25,22.91s18.25,1.1,18.25,1.1,4.59,8.8,18.3,5,15.18-18.33,13.05-23.23c9.67,4.39,27.87-1.49,35-14.62s4.95-28.35-2.85-34.63c4.41-5.06,2.14-12.18-1.07-15.32a8.94,8.94,0,0,0-7.29-2.42s3.48-4.92-1.44-7.54c6.19-4.48,7.86-18.45-3.68-27.67s-26.89-3.58-26.89-3.58a22.41,22.41,0,0,0-5.61-18.77c-6.75-7.15-16.61-5.4-16.61-5.4s-.28-7.32-7.44-7c2.65-6.16-4.57-14.1-8.91-18.07a30.63,30.63,0,0,0-18.92-8.34c-12.67-.62-25.58,9.67-25.7,22.35a9.28,9.28,0,0,0-13,10.33c-7.57-3.84-17.57-3.12-23.78,2.67s-7.35,16.63-1.66,22.94c-5.33-.73-10.39,5.14-8.88,10.3-5.64-6-16.18-6.42-22.28-.88s-6.7,16.08-1.26,22.27c-5.42.75-10.75,3.66-13.32,8.49s-1.63,11.58,2.84,14.73a7,7,0,1,0-2,13.41,17.72,17.72,0,0,0-6.52,7.67c-4.37,9.3-2.3,21.36,6.62,27.08a19.94,19.94,0,0,0,13.8,2.89,6.36,6.36,0,0,0,9.68,5.6A13.54,13.54,0,0,0,69.6,199a22,22,0,0,0,12.13,4c4.16.23,8.58-.45,11.81-3.06a23.19,23.19,0,0,0,4.66-5.83,17.39,17.39,0,0,0,13.11,1c6.42-2.13,11.46-8,11.38-14.77,0-2.68-.18-8-3.45-9C124.93,173,132.73,165.34,132.59,158.47Z" style="fill: #00DD00; transform-origin: 143.006px 111.848px;" id="eliaarexbu3xn" class="animable"></path><g id="el2lqrbb6fwrd"><path d="M247.24,132.17c4.41-5.06,2.14-12.18-1.07-15.32a8.94,8.94,0,0,0-7.29-2.42s3.48-4.92-1.44-7.54c2.49-1.8,4.24-5.12,4.7-9a9.91,9.91,0,0,1-7.39,3.91c-1.43.08-7.67-.88-7.65-3-.11,11.08-14.63,15.49-23.94,5.94,1.1,11.26-12.35,17.36-17.26,13.06-4,4.88-13.69,6.72-17.38-.39-8,9.76-26.45,1.7-20.43-19.23-15.65,9.48-33.67,5.1-35.19-15.09-9.7-.54-16.15,10-10.62,17.49a14.89,14.89,0,0,1-10.56,20.41,20.6,20.6,0,0,1-8.48.5c-1.69-.34-3.43-1.67-5.11-1.63-2.46,0-4.55,2.16-7.32,2.11a11.41,11.41,0,0,1-8.58-4A11.6,11.6,0,0,1,62.88,103a13,13,0,0,1-12.05-7,11.83,11.83,0,0,1-1-3.12,16.41,16.41,0,0,0,3,15.14c-5.42.75-10.75,3.66-13.32,8.49s-1.63,11.58,2.84,14.73a7,7,0,1,0-2,13.41,17.72,17.72,0,0,0-6.52,7.67c-4.37,9.3-2.3,21.36,6.62,27.08a19.94,19.94,0,0,0,13.8,2.89,6.36,6.36,0,0,0,9.68,5.6A13.54,13.54,0,0,0,69.6,199a22,22,0,0,0,12.13,4c4.16.23,8.58-.45,11.81-3.06a23.19,23.19,0,0,0,4.66-5.83,17.39,17.39,0,0,0,13.11,1c6.42-2.13,11.46-8,11.38-14.77,0-2.68-.18-8-3.45-9,5.69,1.65,13.49-6,13.35-12.89-.27,8.88,11.14,15.14,20.25,12.54-.05,5.34,7.68,7.65,10.39,4.66-2.6,4.19-6.26,17,2.25,22.91s18.25,1.1,18.25,1.1,4.59,8.8,18.3,5,15.18-18.33,13.05-23.23c9.67,4.39,27.87-1.49,35-14.62S255,138.45,247.24,132.17Z" style="opacity: 0.2; transform-origin: 143.012px 144.341px;" class="animable" id="elvt73felhcte"></path></g><path d="M170.4,138.76s18.2,3.51,21.87-9.64c9.52,4.32,26.25,1.39,30.82-10.52,9.6-.94,14.35-11.71,14.35-11.71,4.92,2.62,1.44,7.54,1.44,7.54a8.94,8.94,0,0,1,7.29,2.42c3.21,3.14,5.48,10.26,1.07,15.32a15.44,15.44,0,0,1,2.27,2.3c3.7,7.42-5.85,14.28-12.53,11.2,3.18,7.63-3.46,32.09-29.31,24.7-13.93,10.85-30.11,1-30.18-20C170.09,151.13,165.78,143.4,170.4,138.76Z" style="fill: #00DD00; transform-origin: 209.413px 140.857px;" id="el4jtae0a5kq5" class="animable"></path><path d="M78.36,169c-8.53-8.34-7.28-18-7.28-18s8.55,10.14,23.55,1.93,5-22.81,5-22.81,12.1-.2,8.88-10.52c4.07,1.56,9.8-1.23,9-8.87,3,13.06,14.79,18.36,28.49,14-9.05,4.42-7.68,11.63-.62,16.19,8.13,6.68,9.05,25.33-8.78,26.41a11.27,11.27,0,0,1-4.1-8.74c.14,6.87-7.66,14.54-13.35,12.89h0s-4.66,5.06-11.35-.24C103.85,176,86.88,177.29,78.36,169Z" style="fill: #00DD00; transform-origin: 110.985px 142.875px;" id="elqxea3shpc1k" class="animable"></path><path d="M192.2,186.19s17-26,16.12-28.08-16,23.83-25.28,30.76-27.67,18.67-32.22,18.59-4.78-6.11-2.95-17.78,2.25-14.85,9.9-25.35,29.56-38.92,28.35-40.28-29,35.93-35.86,40.5c-6.68,4.47-11.95-26.44-14.2-26.48s6.09,22.16,6.45,32.45-.89,22.6-5.17,25.71-15.67-7-23-16-6.83-47.27-9.77-47.32,1.28,35.16,1.22,38.55c-.12,7.39-28.38-13.34-33.57-12.52s26.11,13.59,38.28,26.89c10.59,11.59,12.47,17.36,16,25.87,3.76,9,5.06,13.63,2.2,62.37s-6.17,70.54-6.17,70.54c0,2.71,1.55,5.27,4.8,7.4,6.51,4.24,17.17,4,23.81,0,3.33-2,5-4.69,5.06-7.4h0s-5.54-25.66-6.7-70.18-.43-52.65,8.68-59.45,25.5-22.48,32.32-24.57,20.73.88,20.76-.54S192.2,186.19,192.2,186.19Z" style="fill: rgb(55, 71, 79); transform-origin: 141.452px 239.557px;" id="elrgy6nbq2nfl" class="animable"></path></g></g><g id="freepik--tree-2--inject-358" class="animable" style="transform-origin: 347.424px 222.282px;"><g id="freepik--tree--inject-358" class="animable" style="transform-origin: 347.424px 222.282px;"><path d="M368,196.51c.5,10.57-12.95,18.26-23.85,15.35.16,6.36-9,9.27-12.28,5.76,3.18,4.94,7.81,20.08-2.2,27.32S308,246.63,308,246.63s-5.28,10.57-21.68,6.3-18.45-21.52-16-27.39c-11.42,5.42-33.22-1.2-42-16.68s-6.47-33.66,2.68-41.29c-5.35-5.94-2.79-14.46,1-18.26a10.68,10.68,0,0,1,8.63-3s-4.25-5.78,1.55-9c-7.46-5.2-9.73-21.79,3.81-33s31.95-4.82,31.95-4.82S275,87,284.18,77c7.89-8.66,19.66-6.77,19.66-6.77s.19-8.72,8.71-8.47c-4.2-9.33,1.38-20.24,8.25-24.66,12.76-8.21,43.58-8.19,41.55,14.69,13.21-8.55,30.86,5.88,26.84,18.42,11-8.11,26.6,5.31,21.74,17.34,15.21-3,29.29,15.9,19.67,31.64,6-2.88,19,.58,17.71,11.59a14.46,14.46,0,0,1,17.14,11.43c1.48,8-2.32,13.73-8.51,17.17,5.66-.37,8.33,9.24,4.37,11.68,10.93.88,16.49,24.35,2.55,30.84,7.23,6,8.44,39-16.11,50.32s-57.64.59-57.65-21c-9.75-3.25-13.08-14.3-5.92-19.63C377.45,213.66,368,204.7,368,196.51Z" style="fill: #00DD00; transform-origin: 347.48px 144.448px;" id="elgayk6saisck" class="animable"></path><g id="el4wb4twmafn3"><path d="M368,196.51c.5,10.57-12.95,18.26-23.85,15.35.16,6.36-9,9.27-12.28,5.76,3.18,4.94,7.81,20.08-2.2,27.32S308,246.63,308,246.63s-5.28,10.57-21.68,6.3-18.45-21.52-16-27.39c-11.42,5.42-33.22-1.2-42-16.68s-6.47-33.66,2.68-41.29c-5.35-5.94-2.79-14.46,1-18.26a10.68,10.68,0,0,1,8.63-3s-4.25-5.78,1.55-9c-7.46-5.2-9.73-21.79,3.81-33s31.95-4.82,31.95-4.82S275,87,284.18,77c7.89-8.66,19.66-6.77,19.66-6.77s.19-8.72,8.71-8.47c-4.2-9.33,1.38-20.24,8.25-24.66,12.76-8.21,43.58-8.19,41.55,14.69,13.21-8.55,30.86,5.88,26.84,18.42,11-8.11,26.6,5.31,21.74,17.34,15.21-3,29.29,15.9,19.67,31.64,6-2.88,19,.58,17.71,11.59a14.46,14.46,0,0,1,17.14,11.43c1.48,8-2.32,13.73-8.51,17.17,5.66-.37,8.33,9.24,4.37,11.68,10.93.88,16.49,24.35,2.55,30.84,7.23,6,8.44,39-16.11,50.32s-57.64.59-57.65-21c-9.75-3.25-13.08-14.3-5.92-19.63C377.45,213.66,368,204.7,368,196.51Z" style="fill: rgb(255, 255, 255); opacity: 0.3; transform-origin: 347.48px 144.448px;" class="animable" id="elnmh0hhud3e"></path></g><g id="eljlgprn8ele9"><path d="M447.75,252.19c24.55-11.32,23.34-44.32,16.11-50.32,13.94-6.49,8.38-30-2.55-30.84,4-2.44,1.29-12.05-4.37-11.68,6.19-3.44,10-9.17,8.51-17.17a14.33,14.33,0,0,0-6.21-9.32c4.15,8.07,1.12,21.3-11.91,23A16.93,16.93,0,0,1,430.88,149s-3.08,4.46-15,2a17.73,17.73,0,0,1-13-24.08c6.42-9.08-1.47-21.45-13-20.6-1.39,24.06-22.75,29.64-41.58,18.69,7.6,24.78-14.18,34.76-23.92,23.31-4.25,8.54-15.82,6.54-20.69.82-5.75,5.22-21.9-1.77-20.82-15.19-10.88,11.56-28.26,6.61-28.62-6.57-8.32,9.26-17.29,3-18-1,.59,4.78,2.77,8.79,5.81,10.91-5.8,3.23-1.55,9-1.55,9a10.68,10.68,0,0,0-8.63,3c-3.75,3.8-6.31,12.32-1,18.26-9.15,7.63-11.44,25.81-2.68,41.29s30.57,22.1,42,16.68c-2.44,5.87-.39,23.11,16,27.39s21.68-6.3,21.68-6.3,11.7,5.54,21.71-1.69,5.38-22.38,2.2-27.32c3.3,3.51,12.44.6,12.28-5.76,10.9,2.91,24.35-4.78,23.85-15.35,0,8.19,9.42,17.15,16.15,15.07-7.16,5.33-3.83,16.38,5.92,19.63C390.11,252.78,423.21,263.5,447.75,252.19Z" style="fill: #00DD00; opacity: 0.7; transform-origin: 347.424px 181.517px;" class="animable" id="elo6m0s807fck"></path></g><g id="el42ke6k49cfy"><path d="M322.61,173.83s-21.6,4.54-26.23-11c-11.25,5.34-31.24,2.2-36.91-11.89-11.46-.92-17.34-13.65-17.34-13.65-5.8,3.23-1.55,9-1.55,9a10.68,10.68,0,0,0-8.63,3c-3.75,3.8-6.31,12.32-1,18.26a18.42,18.42,0,0,0-2.65,2.78c-4.25,8.91,7.26,16.88,15.14,13.08-3.62,9.14,4.79,38.12,35.41,28.8,16.8,12.62,35.86.53,35.51-24.39C323.23,188.55,328.2,179.26,322.61,173.83Z" style="fill: rgb(255, 255, 255); opacity: 0.3; transform-origin: 276.179px 177.276px;" class="animable" id="elj2b4i8d57lq"></path></g><g id="elw41zq9fvngl"><path d="M432.81,207.87c10-10.1,8.3-21.6,8.3-21.6s-10,12.24-28,2.78S406.64,162,406.64,162s-14.42,0-10.8-12.34c-4.81,1.94-11.69-1.27-11-10.38-3.33,15.61-17.23,22.17-33.62,17.2,10.86,5.07,9.38,13.68,1.07,19.26-9.54,8.12-10.25,30.35,11,31.26a13.41,13.41,0,0,0,4.7-10.49c0,8.19,9.42,17.15,16.15,15.07h0s5.66,5.93,13.52-.51C402.61,216.84,422.84,218,432.81,207.87Z" style="fill: rgb(255, 255, 255); opacity: 0.3; transform-origin: 393.566px 177.369px;" class="animable" id="elfwr834oifit"></path></g><path d="M416.12,216.82S434.49,190,433.47,187.9,416.12,212.49,406,219.72s-30.37,19.52-35.43,19.52-5.42-6.15-3.62-18.08,2.21-15.18,10.51-26,32.08-40.2,30.71-41.57-31.54,37.15-39.05,41.93c-7.33,4.68-13.77-26.75-16.27-26.75s7.18,22.49,7.79,33-.56,23.06-5.25,26.31-17.54-6.87-25.85-15.91S321.05,164,317.79,164s2.09,35.84,2.09,39.3c0,7.53-31.77-13.1-37.52-12.18s29.26,13.4,43,26.75c12,11.62,14.18,17.48,18.27,26.09,4.34,9.14,5.88,13.95,3.65,63.7s-7.25,94-7.25,94c0,2.76,1.83,5.53,5.48,7.64,7.31,4.21,19.15,4.21,26.45,0,3.65-2.11,5.48-4.88,5.48-7.64h0s-4.92-48.65-7.07-94-1.48-53.81,8.5-60.91,27.88-23.37,35.42-25.63,29.28,1.45,29.28,0S416.12,216.82,416.12,216.82Z" style="fill: rgb(55, 71, 79); transform-origin: 362.649px 283.006px;" id="elu85q11oq5q" class="animable"></path></g></g><g id="freepik--character-2--inject-358" class="animable" style="transform-origin: 221.685px 375.339px;"><g id="freepik--character--inject-358" class="animable" style="transform-origin: 221.685px 375.339px;"><g id="freepik--bottom--inject-358" class="animable" style="transform-origin: 219.533px 406.626px;"><path d="M241.44,444.38c-.57-4.6-1.67-6.35-2-8.74s-.19-5.33-.45-6.43c0,0,.81-14.67,1-20.62a43.31,43.31,0,0,0-1.07-10.83s.09-11.77,0-20.83c0-2.48,0-4.53-.13-6.31-.07-3.11-.22-6-.46-8.43H208.61s-1.81,23.14-1.71,33.62a129.44,129.44,0,0,0,.84,14.86c.91,7.72,1.57,13.3,1.74,16.54.17,3-.37,3.44-2.35,6.22a24.59,24.59,0,0,1-7,6.64c-2.06,1.1-2.73,2.86-.32,3.87,2,.82,6.14,1.17,8.52-.44s3.93-3.7,6.42-4.82c1-.44,4.1-.46,4.6-2.46s-.38-5.64-.79-8.13v-.8c.43-5,1-10,1.47-14.3a100,100,0,0,0,.57-10.67L222,382.7l.72-.17c.95,6,2.2,13.83,2.77,17.27s2.88,18.09,3.61,21.71c.51,2.58,1.27,6,1.68,8.18-.4,1.66.43,6.61.11,11.67-.11,1.68-.92,5.85.78,8.41,1.58,2.4,4.25,3.62,7.67,1S241.66,446.19,241.44,444.38Z" style="fill: rgb(200, 133, 106); transform-origin: 220.028px 407.216px;" id="el5ih3j78e8cs" class="animable"></path><path d="M230.37,446.82A9.49,9.49,0,0,0,232,452.2c1,1.38,2.93,1.75,4.89,1.25s4.45-1.71,5-3.82a11.24,11.24,0,0,0,0-5.76Z" style="fill: rgb(38, 50, 56); transform-origin: 236.318px 448.766px;" id="elqkqmhc5m8n" class="animable"></path><path d="M239,429.21c.81,0,.26,3,.7,6.26.47,3.47,1.7,4.86,2.12,7.7.48,3.25.27,4.72-1.11,6.75s-6.2,4.17-8.55,1.44c-1.92-2.23-2-4.79-1.78-8.06a68.26,68.26,0,0,0,.24-8.31c-.14-2.45-.56-5,.14-5.3,0,.36.56,3.05.91,2.79a.37.37,0,0,0,.12-.22,3.45,3.45,0,0,0,.08-1.06,1.27,1.27,0,0,1,0-.39.6.6,0,0,1,.16-.25,1.69,1.69,0,0,1,.94-.42,13.34,13.34,0,0,1,4.79-.28.5.5,0,0,1,.32.12.53.53,0,0,1,.08.22,8.42,8.42,0,0,1,.08,1,.88.88,0,0,0,.07.32.3.3,0,0,0,.26.17c.3,0,.27-.41.3-.61s.11-.52.13-.79A2.51,2.51,0,0,0,239,429.21Z" style="fill: rgb(55, 71, 79); transform-origin: 236.174px 440.931px;" id="ellz7y7n8991" class="animable"></path><path d="M241.65,442.25c.08.47.53,3.57-.48,4.18s-1.68-1.78-1.68-1.78a11.56,11.56,0,0,0-6.3,1c.19.5-.4,2.19-1.42,1.88s-1.39-3.87-1.4-3.92c-.17,3.14-.06,5.61,1.8,7.78,2.35,2.73,7.18.6,8.55-1.44s1.59-3.5,1.11-6.75C241.78,442.85,241.72,442.54,241.65,442.25Z" style="fill: rgb(69, 90, 100); transform-origin: 236.187px 447.467px;" id="elali5c8a7joe" class="animable"></path><path d="M239.19,444.87c0,1.18,1.4.73,1.47-.94s-1-5.59-.95-8.46c-.44-3.24.11-6.24-.7-6.26,0,0-.25,2.09-.25,2.35,0,2.41,0,6.94.23,9.13A31.13,31.13,0,0,1,239.19,444.87Z" style="fill: rgb(38, 50, 56); transform-origin: 239.712px 437.371px;" id="el52kqv7cz53" class="animable"></path><path d="M233.62,445.57a32.65,32.65,0,0,1-.73-4.11c-.26-2.18-.93-6.73-1.46-9.08-.12-.51-.66-2.67-.66-2.69-.55.19-.31,1.73-.24,3.36.09.94.26,2.1.5,3.51.67,2.78.51,6.87.95,8.48S233.88,446.72,233.62,445.57Z" style="fill: rgb(38, 50, 56); transform-origin: 232.034px 438.021px;" id="eljwgsuukp0j" class="animable"></path><path d="M233.11,445.72a.45.45,0,0,0,.11,0,11.19,11.19,0,0,1,6.19-.79.32.32,0,0,0,.36-.2.22.22,0,0,0-.2-.29,11.67,11.67,0,0,0-6.62.85.23.23,0,0,0-.13.34A.3.3,0,0,0,233.11,445.72Z" style="fill: rgb(240, 240, 240); transform-origin: 236.284px 445.007px;" id="elgypluvbpqwr" class="animable"></path><path d="M232.46,443.18l.1,0a13.84,13.84,0,0,1,6.93-.89.33.33,0,0,0,.36-.2.23.23,0,0,0-.22-.29,14.57,14.57,0,0,0-7.33.93.24.24,0,0,0-.14.34A.29.29,0,0,0,232.46,443.18Z" style="fill: rgb(240, 240, 240); transform-origin: 235.995px 442.432px;" id="elux9e4dl8f0n" class="animable"></path><path d="M239.31,439.84a.31.31,0,0,0,.26-.18.24.24,0,0,0-.19-.31,12.15,12.15,0,0,0-7.31.88.25.25,0,0,0-.13.35.33.33,0,0,0,.4.08,11.67,11.67,0,0,1,6.85-.82A.24.24,0,0,0,239.31,439.84Z" style="fill: rgb(240, 240, 240); transform-origin: 235.746px 439.916px;" id="elaaocesw82df" class="animable"></path><path d="M239.19,437.87a.31.31,0,0,0,.25-.17.24.24,0,0,0-.18-.32,10.93,10.93,0,0,0-7.46.87.23.23,0,0,0-.1.35.34.34,0,0,0,.41.07,10.38,10.38,0,0,1,6.95-.81A.19.19,0,0,0,239.19,437.87Z" style="fill: rgb(240, 240, 240); transform-origin: 235.555px 437.895px;" id="elvw79g2tzog" class="animable"></path><path d="M239.06,435.58a.33.33,0,0,0,.25-.17.23.23,0,0,0-.17-.32,11.42,11.42,0,0,0-7.51.94.23.23,0,0,0-.11.34.31.31,0,0,0,.4.08,10.9,10.9,0,0,1,7-.88Z" style="fill: rgb(240, 240, 240); transform-origin: 235.406px 435.661px;" id="elip2whx573c" class="animable"></path><path d="M240.84,406.67a92.56,92.56,0,0,0-1.32-9.27s-.1-3.4-.07-7.82.27-9.07.18-15,0-9.49-.31-13.84l-31.17-1.15c-1.6,12.21-1.66,26.89-1.78,35a120.88,120.88,0,0,0,1,16.16c.45,3.78,1.59,12.9,1.59,12.9a8.25,8.25,0,0,0,5,1.58,8.93,8.93,0,0,0,5.38-1.42s1.39-7.24,1.93-13.57a37.9,37.9,0,0,0-.32-7.84l1.88-14.16,1.44,7.47c1.35,8.38,5.29,30.16,5.29,30.16a6.93,6.93,0,0,0,5,1.08,10.11,10.11,0,0,0,4.92-1.52S241.11,410.66,240.84,406.67Z" style="fill: rgb(55, 71, 79); transform-origin: 223.619px 393.317px;" id="eluq4nt341ox" class="animable"></path><path d="M222.82,388.23l-1.1-7.41s-6.05-1.56-7.77-4.85c0,0,.48,4.4,6.84,6.9l.87,5.61-.72,13.91Z" style="fill: rgb(38, 50, 56); transform-origin: 218.385px 389.18px;" id="eln6bqr4y582" class="animable"></path><path d="M197.14,442.14a2.32,2.32,0,0,0,.48,2.34A10,10,0,0,0,205,446c3.64-.53,4.64-1.28,6.07-2.52s2.76-2.55,4.4-2.94,3.84-1,4.32-1.49.38-2.58.38-2.58Z" style="fill: rgb(38, 50, 56); transform-origin: 208.594px 441.319px;" id="elhjnux5zyf4" class="animable"></path><path d="M218.59,427.41a.65.65,0,0,1,.62.49c.13.58.27,2.26.53,3.21a23.79,23.79,0,0,1,.34,6.11c-.18,1.08-3.33,1.8-4.91,2.44a15,15,0,0,0-4.41,2.89,11.18,11.18,0,0,1-6.69,2.57c-2.8,0-6-.83-6.72-2.11-.92-1.6-1.08-3.14,3.05-5.14.78-.38,2.91-1.85,3.84-2.46a17.72,17.72,0,0,0,2.72-2.33,9.48,9.48,0,0,0,1.38-1.82A6,6,0,0,0,209,430a11.92,11.92,0,0,0,.23-1.33c.05-.26.14-.6.39-.71a2.4,2.4,0,0,1,1.17-.13,14.82,14.82,0,0,1,2.8.58,1.71,1.71,0,0,1,.95.58,1.51,1.51,0,0,1,.2.78,5.36,5.36,0,0,0,0,.8.44.44,0,0,0,.11.27c.14.14.37,0,.49-.09a11.11,11.11,0,0,0,1.09-1.37c.2-.25,1.08-.42,1.32-.61a8.17,8.17,0,0,0,.81-.61C218.82,427.94,218.58,427.75,218.59,427.41Z" style="fill: rgb(55, 71, 79); transform-origin: 208.479px 436.265px;" id="elkgpxcbkds6" class="animable"></path><path d="M210.76,442.55a21,21,0,0,1,1.9-1.51h0s-4.4,1.83-6.4.51a1.78,1.78,0,0,1-.68-2.25c0-.34-3.14-1.74-4.38-1.86h0l-.8.44c-4.13,2-4,3.54-3.05,5.14.74,1.28,3.05,2.26,6.68,2.2A11.54,11.54,0,0,0,210.76,442.55Z" style="fill: rgb(69, 90, 100); transform-origin: 204.73px 441.331px;" id="eln0xw5d3ty5l" class="animable"></path><path d="M205.91,438.3c-2.57,1.07-1.46,1.54-.73,1.63s4.34-2.07,7-4.22,5.11-4.59,6.13-5.42c.37-.3.78-.68,1.14-1-.08-.57-.14-1.09-.2-1.36-.1-.48-.68-.61-.68-.61v.8a3,3,0,0,1-.89.51,2.94,2.94,0,0,0-1.21.81,11.11,11.11,0,0,1-1.09,1.37A29.8,29.8,0,0,1,205.91,438.3Z" style="fill: rgb(38, 50, 56); transform-origin: 211.877px 433.626px;" id="elef3lndo1ig" class="animable"></path><path d="M205.36,439.55a.27.27,0,0,0,.16-.06.28.28,0,0,0,0-.37,6.17,6.17,0,0,0-4.77-1.79.27.27,0,0,0-.23.29.25.25,0,0,0,.29.22,5.72,5.72,0,0,1,4.32,1.62A.25.25,0,0,0,205.36,439.55Z" style="fill: rgb(240, 240, 240); transform-origin: 203.054px 438.434px;" id="el86xw4gjpmog" class="animable"></path><path d="M207.6,438.23a.2.2,0,0,0,.16-.05.26.26,0,0,0,0-.36,6.15,6.15,0,0,0-4.73-1.9.26.26,0,1,0,.05.51,5.72,5.72,0,0,1,4.28,1.71A.25.25,0,0,0,207.6,438.23Z" style="fill: rgb(240, 240, 240); transform-origin: 205.292px 437.074px;" id="el56iv533h3rs" class="animable"></path><path d="M209.66,436.75a.25.25,0,0,0,.16-.06.25.25,0,0,0,0-.36,6.16,6.16,0,0,0-4.77-1.79.26.26,0,0,0,.06.51,5.7,5.7,0,0,1,4.32,1.61A.27.27,0,0,0,209.66,436.75Z" style="fill: rgb(240, 240, 240); transform-origin: 207.379px 435.639px;" id="el4t5kcop9ci8" class="animable"></path><path d="M211.29,435.3a.3.3,0,0,0,.16-.05.27.27,0,0,0,.05-.36,6.16,6.16,0,0,0-4.69-2,.27.27,0,0,0-.24.28.25.25,0,0,0,.28.23,5.73,5.73,0,0,1,4.24,1.8A.26.26,0,0,0,211.29,435.3Z" style="fill: rgb(240, 240, 240); transform-origin: 209.058px 434.094px;" id="elyznn2onrj2r" class="animable"></path><path d="M213.22,433.61a.3.3,0,0,0,.16-.05.27.27,0,0,0,.05-.36,6.31,6.31,0,0,0-5.13-2,.26.26,0,0,0-.24.28.25.25,0,0,0,.28.23,5.83,5.83,0,0,1,4.68,1.81A.26.26,0,0,0,213.22,433.61Z" style="fill: rgb(240, 240, 240); transform-origin: 210.768px 432.395px;" id="elqd2eyd53px" class="animable"></path></g><g id="freepik--top--inject-358" class="animable" style="transform-origin: 223.472px 333.584px;"><path d="M215.91,327c-4.2,0-8.9,3.83-13.75,7.15C199,336.29,201,345.39,201,345.39c1.55.27,4.49-.38,8.19-2.23s6.7-3.77,6.7-3.77Z" style="fill: rgb(55, 71, 79); transform-origin: 208.143px 336.224px;" id="elz5no6xnzrsr" class="animable"></path><g id="freepik--Chest--inject-358" class="animable" style="transform-origin: 223.681px 348.47px;"><path d="M240,342.64c.71-6.65,0-7.22-.79-9.62s-2.7-4.73-5-5c0,0-3.15-.51-5.8-.67-3.4-.21-5.55-.45-8.07-.54a32.06,32.06,0,0,0-4.51.15c-3.28.41-6.72,6.19-7.17,13.64-.62,10.44-.6,14.54-1.59,23.21,2.55,5.79,18.47,9.5,33.1,2.62,0,0-.68-7.89-.87-11.32A83.55,83.55,0,0,1,240,342.64Z" style="fill: #00DD00; transform-origin: 223.681px 348.47px;" id="el2fy3tfvzfy" class="animable"></path></g><g id="freepik--Head--inject-358" class="animable" style="transform-origin: 228.105px 314.651px;"><path d="M226.81,302.22a3.27,3.27,0,0,1,.18-2.66,3.27,3.27,0,0,1,3.38-1.57,6.89,6.89,0,0,0,2,.43c1.34-.13,2.28-1.84,3.73-1.3a3.77,3.77,0,0,1,1.59,1.35,7,7,0,0,0,1.41,1.55,4.3,4.3,0,0,0,2.15.65,2.52,2.52,0,0,1,2.52,1.68c.39,1.11-.7,2.32-.42,3.47.21.86,1.06,1.38,1.8,1.88s1.51,1.22,1.41,2.11-.85,1.32-1.56,1.7-1.49.82-1.72,1.59c-.32,1,.56,2.19.19,3.22a2.31,2.31,0,0,1-1.92,1.27,8.84,8.84,0,0,0-2.36.48,10.54,10.54,0,0,0-1.58,1.19,2,2,0,0,1-1.83.48c-.84-.28-1.17-1.33-1.92-1.79-1-.62-2.41-.08-3.35-.75s-.87-2-.58-3.09.72-2.24.27-3.26a3.66,3.66,0,0,0-1.78-1.6,6.6,6.6,0,0,1-2-1.31,1.82,1.82,0,0,1-.3-2.22,1.76,1.76,0,0,1,.66-.52c.19-.08.32-.1.42-.3a2.62,2.62,0,0,0,.16-1.59,2.41,2.41,0,0,0-.4-.78C226.89,302.43,226.85,302.32,226.81,302.22Z" style="fill: rgb(38, 50, 56); transform-origin: 236.22px 308.405px;" id="elszq62ol1nwp" class="animable"></path><path d="M233.57,301.53c1.72,1.35,3.76,4.3,2.39,6.42-2.13,1.56-4.71-1.39-5.65-3.16C229.19,302.15,230.7,299.26,233.57,301.53Z" style="fill: #00DD00; transform-origin: 233.174px 304.55px;" id="elm3ydis1xp1" class="animable"></path><path d="M211.18,302.8c-3,5-.88,9.61.23,10.43L228.83,325c1.19-2.73,5.22-4,7.21-9.72,1.15-3.33.43-8.62-2.53-10.47C231.58,296.86,216.21,294.4,211.18,302.8Z" style="fill: rgb(38, 50, 56); transform-origin: 223.101px 311.28px;" id="elacpd0hgg2n5" class="animable"></path><path d="M232.47,320a4.51,4.51,0,0,0,2.13-2.14,5,5,0,0,0,.21-3.94,2.64,2.64,0,0,0-2.68-1.3,2.18,2.18,0,0,0-1.67,1.36c-.26.45-.68,1.59-1.31,1.38-.94-.3-.56-2.25-.58-3.19-.06-5.71-4.27-8.27-8.5-7.92-3.92-1.75-6.64.3-8,3.16-1,2.14-.28,4.45-.44,5.12a11.5,11.5,0,0,0-.79,3.19,8.26,8.26,0,0,0,1.36,6.29,9.07,9.07,0,0,0,6.4,3.44h0l0,3.47c-3.67,3.91,7,5.16,10.54-.34l.36-9.22A3.14,3.14,0,0,0,232.47,320Z" style="fill: rgb(200, 133, 106); transform-origin: 222.906px 317.945px;" id="elvclcwkqwa5n" class="animable"></path><path d="M218.64,325.44a14.29,14.29,0,0,0,6.92-1.2,6.64,6.64,0,0,0,3-3.46,4.4,4.4,0,0,1-1.94,4.23c-3,2-8,1.9-8,1.9Z" style="fill: rgb(175, 97, 82); transform-origin: 223.608px 323.845px;" id="elv2lm5d3vscc" class="animable"></path><path d="M215.12,309.78l-2.26.5a1.2,1.2,0,0,1,.89-1.42A1.16,1.16,0,0,1,215.12,309.78Z" style="fill: rgb(38, 50, 56); transform-origin: 213.976px 309.558px;" id="elfsjoy8237u7" class="animable"></path><path d="M225,311.64l-1.84-1.42a1.15,1.15,0,0,1,1.63-.25A1.22,1.22,0,0,1,225,311.64Z" style="fill: rgb(38, 50, 56); transform-origin: 224.199px 310.689px;" id="elfe4oqm2tvj9" class="animable"></path><path d="M221.8,313.37a1,1,0,1,0,1.11-.89A1,1,0,0,0,221.8,313.37Z" style="fill: rgb(38, 50, 56); transform-origin: 222.795px 313.473px;" id="elmcolj4mvgac" class="animable"></path><path d="M213.11,312.36a1,1,0,1,0,1.11-.89A1,1,0,0,0,213.11,312.36Z" style="fill: rgb(38, 50, 56); transform-origin: 214.105px 312.463px;" id="elnq84ptu984n" class="animable"></path><path d="M222.09,318.72c-.62-.75-1.3.06-2.8.18s-2.29-.74-2.65.2c-.3.78.49,2.56,3,2.52C221.72,321.59,222.64,319.38,222.09,318.72Z" style="fill: rgb(175, 97, 82); transform-origin: 219.413px 320.013px;" id="elys9tu0p5l2o" class="animable"></path><path d="M219.29,318.9a20.48,20.48,0,0,0,2.09-.49l0,.69a3.06,3.06,0,0,1-1.66.55,4.34,4.34,0,0,1-2.33-.34l-.14-.65A10.44,10.44,0,0,0,219.29,318.9Z" style="fill: rgb(250, 250, 250); transform-origin: 219.315px 319.048px;" id="elgocls4hk03" class="animable"></path><path d="M219.6,321.62a3.85,3.85,0,0,1-1.33-.19,2.86,2.86,0,0,1,3-1.48,2.28,2.28,0,0,1,.68.23A2.69,2.69,0,0,1,219.6,321.62Z" style="fill: rgb(255, 168, 167); transform-origin: 220.11px 320.766px;" id="elz33kegom6" class="animable"></path><polygon points="218.94 311.33 218.6 316.92 215.52 315.69 218.94 311.33" style="fill: rgb(175, 97, 82); transform-origin: 217.23px 314.125px;" id="el354bo564v6p" class="animable"></polygon><path d="M217.85,302.85c-2.31.49-4.75,1.51-5.86,3.8a3.64,3.64,0,0,0-.5,1.38c0,.22.33.27.5.32a12.39,12.39,0,0,0,3.21.4.5.5,0,0,0,.58-.37,6.51,6.51,0,0,1,.66-1.36c.15-.23.58-.82.57-.33a12,12,0,0,0,0,2.24.84.84,0,0,0,.47.49,13.76,13.76,0,0,0,4.12,1,2.48,2.48,0,0,0,1-.05c.42-.26.54-1,.55-2.46,0-.17,0-.29.07-.32.42.07.86,1.77.92,2s.06.55.82.69a8.52,8.52,0,0,0,3.92-.1c.07,0,.19,0,.25-.07a1.32,1.32,0,0,0,.1-.69,4.78,4.78,0,0,0-1.44-3,11,11,0,0,0-2.49-2.2A10.5,10.5,0,0,0,217.85,302.85Z" style="fill: rgb(38, 50, 56); transform-origin: 220.365px 306.564px;" id="elinenwd2d8re" class="animable"></path></g></g><path d="M200.13,332.71a13.88,13.88,0,0,0-2.32,6.59,8.85,8.85,0,0,0,.46,3.23c.51,1.56,2.06,3.44,3.82,2.69a9.77,9.77,0,0,0,4.32-3.7,16,16,0,0,0,1.86-4.67c.46-1.75,1.09-3.44,1.47-5.22a15.55,15.55,0,0,1,1.34-4.43c.77-1.37,1.91-2.38,2.41-3.94a8.71,8.71,0,0,0,.27-1.23l.38-2.3a6.73,6.73,0,0,1,.68-1.88,18.66,18.66,0,0,0,1-2,3,3,0,0,0,.2-1.06,3.66,3.66,0,0,0-.29-.69,2.31,2.31,0,0,0,.32-1,1.3,1.3,0,0,0-.37-.87.75.75,0,0,0-.57-.21c0-.35,0-1.38-.8-1.65-.25,0-.47.18-.68.32a9.25,9.25,0,0,0-.75.6.61.61,0,0,0-.29-.06c-2,.06-3.22,2.17-3.93,3.72a14.67,14.67,0,0,1-.76,1.54,6.57,6.57,0,0,0-.91,1.66,17,17,0,0,0-.37,2.25,11.11,11.11,0,0,1-1.28,4.71c-1.07,1.65-2.24,3.25-3.36,4.87C201.32,330.87,200.7,331.77,200.13,332.71Z" style="fill: rgb(200, 133, 106); transform-origin: 206.926px 327.88px;" id="elzfmuba5mp4" class="animable"></path><path d="M216.05,314.57a1.56,1.56,0,0,0-.23-.5c.48-.72.34-2-.65-2.14,0-.64-.18-1.45-.89-1.65-.54,0-1.07.67-1.49,1-1.8-.43-3.51,2-4.17,3.72a9.56,9.56,0,0,1,1.63-2.49,3,3,0,0,1,2.61-1.09l0,0,.67-.53c.24-.16.47-.38.7-.36.61.19.75,1,.7,1.66a.85.85,0,0,1,.91.79,1.76,1.76,0,0,1-.05.61,1.34,1.34,0,0,1-.12.3.34.34,0,0,1-.2.22.2.2,0,0,1,.15.09,1.29,1.29,0,0,1,.18,1.05c-.51,1.88-1.91,3.52-2,5.54-.12.78-.25,1.56-.42,2.32-.37,1.54-1.59,2.66-2.37,4a14.79,14.79,0,0,0-1.33,4.55,15.37,15.37,0,0,1,1.45-4.48c.78-1.34,2-2.46,2.44-4s.41-3.16,1-4.6C215.14,317.24,216.36,316,216.05,314.57Z" style="fill: rgb(175, 97, 82); transform-origin: 212.36px 320.97px;" id="eleo1wvzcrg7" class="animable"></path><path d="M209.21,317.78a28,28,0,0,1,3-5.79A13.55,13.55,0,0,0,209.21,317.78Zm1.57.76a20.2,20.2,0,0,1,3.83-6.36,9,9,0,0,0-2.37,2.9A14.61,14.61,0,0,0,210.78,318.54Zm3.69-3.82A15.59,15.59,0,0,0,212,319.9a26.7,26.7,0,0,1,2.57-5.09c.29-.48.69-.88,1.08-.73a.58.58,0,0,0-.62.05A2.36,2.36,0,0,0,214.47,314.72Z" style="fill: rgb(175, 97, 82); transform-origin: 212.43px 315.945px;" id="elt4b2m2ven0m" class="animable"></path><path d="M234.29,328.05c5.41,0,7,2.25,7.5,6.14.28,2.19.27,12.67-2,14.36s-8.48-6.9-8.48-6.9S231.74,330.78,234.29,328.05Z" style="fill: rgb(55, 71, 79); transform-origin: 236.612px 338.41px;" id="el0qlkt2tnb2w" class="animable"></path><path d="M228.82,316.15a6.64,6.64,0,0,1,.51,1.39c.23.63.47,1.26.7,1.88a11.68,11.68,0,0,1,.86,3.2c.08,1.05-.12,2.1,0,3.14a8.7,8.7,0,0,0,1.61,3.54c2.31,3.59,5.26,7,6.94,10.9a13.94,13.94,0,0,1,1.19,5.2c0,1.25-.23,2.92-1.4,3.6a3.77,3.77,0,0,1-2.76.3,9.08,9.08,0,0,1-2.56-1.2,15.29,15.29,0,0,1-3.76-3.12c-2.58-3.11-3.14-7.35-4.28-11.23a35.52,35.52,0,0,0-3-7.2,23.6,23.6,0,0,1-2.43-6,10.11,10.11,0,0,1-.3-2.32,6.44,6.44,0,0,1,.37-2.18,2.83,2.83,0,0,0,.11-.31,2.35,2.35,0,0,0,0-.53,1.79,1.79,0,0,1,.32-1.24,3.87,3.87,0,0,1,.41-.4.44.44,0,0,0,.13-.14c.1-.17,0-.39,0-.58a.89.89,0,0,1,.87-.79,1.57,1.57,0,0,1,1.22.66.16.16,0,0,0,.09.07.17.17,0,0,0,.12,0,1.37,1.37,0,0,1,.57,0,1,1,0,0,1,.5.25,2.14,2.14,0,0,1,.59,1.11c.21.67.38,1.36.59,2a12.56,12.56,0,0,0,1.48,3.86c.08.11.2.23.32.18s.15-.18.15-.3c.09-1.25-.75-2.47.12-3.63C228.42,315.85,228.65,315.91,228.82,316.15Z" style="fill: rgb(200, 133, 106); transform-origin: 230.385px 330.748px;" id="elsdruyifbd7" class="animable"></path><path d="M230.16,345c-3.52-4.33-3.47-10.3-5.81-15.2-2-4.51-5.57-9.28-3.87-14.43a2,2,0,0,1,.77-1.91c.28-.14,0-.48.17-.9a1.05,1.05,0,0,1,.91-.64,1.73,1.73,0,0,1,1.36.73c1.58-.3,1.83,1.27,2.15,2.41l.56,2c.46,2,2.12,5.35,1.24.76-.19-.63.6-2.62,1.29-1.6.64,1.77,1.33,3.51,1.85,5.33.37,1.35,0,2.74.14,4.09a8.35,8.35,0,0,0,1.59,3.71,8.39,8.39,0,0,1-1.66-3.7c-.12-1.37.19-2.75-.2-4.07-.41-1.64-1.21-3.19-1.66-4.83-.1-.28-.27-.71-.51-.65a1.78,1.78,0,0,0-.66,1.71,18.41,18.41,0,0,1,.27,2c0,.14,0,.46-.3.51s-.34-.25-.45-.37c-.9-1.35-1.22-3.3-1.72-4.83-.31-.86-.36-2.2-1.49-2.25-.17,0-.27.08-.56,0-.51-.61-1.44-1.1-1.91-.22-.09.22.05.5,0,.76s-.67.57-.78,1a2.19,2.19,0,0,0-.09,1c-1.71,5.15,1.73,9.83,3.77,14.37,2.33,4.93,2.2,10.87,5.64,15.27Z" style="fill: rgb(175, 97, 82); transform-origin: 226.272px 328.485px;" id="el24uqw4yg99g" class="animable"></path><path d="M223.53,312.9a3.39,3.39,0,0,0,0,1.76,22.37,22.37,0,0,0,1.34,5.14c-.25-1-.57-2.43-.81-3.44-.2-.85-.36-1.73-.5-2.59a1.83,1.83,0,0,1,0-.87Z" style="fill: rgb(175, 97, 82); transform-origin: 224.142px 316.35px;" id="elsr8xnr88kro" class="animable"></path><path d="M221.56,313.47a21.2,21.2,0,0,0,1.52,7c-.69-2.25-1-4.69-1.52-7Z" style="fill: rgb(175, 97, 82); transform-origin: 222.32px 316.97px;" id="elj3su154kzb8" class="animable"></path><path d="M220.61,315.79a14.52,14.52,0,0,0,1,5.25c-.31-1.55-.76-3.72-1-5.25Z" style="fill: rgb(175, 97, 82); transform-origin: 221.11px 318.415px;" id="el6x8tf9pv6ce" class="animable"></path></g></g><g id="freepik--speech-bubble--inject-358" class="animable" style="transform-origin: 276.189px 286.982px;"><g id="freepik--speech-bubble--inject-358" class="animable" style="transform-origin: 276.189px 286.982px;"><path id="freepik--speech-bubble--inject-358" d="M283,270.71c-22.14-1.13-31.16,5.5-32.85,13.88a15.19,15.19,0,0,0,1.64,10.56l-4.38,4.9,8.84-.62a31.43,31.43,0,0,0,8.32,3.06c10.28,1.63,27,1.61,35.33-5.21a14.74,14.74,0,0,0,3.17-3.56C306.41,288.47,308.18,272,283,270.71Z" style="fill: rgb(255, 255, 255); transform-origin: 276.189px 286.982px;" class="animable"></path><path d="M263.36,280.21a.22.22,0,0,1-.05-.19.25.25,0,0,1,.1-.18l2.14-1.69.17-.11a.28.28,0,0,1,.18-.06h.77a.29.29,0,0,1,.19.08.27.27,0,0,1,.08.19v6.38a.27.27,0,0,1-.08.19.29.29,0,0,1-.19.08h-.8a.27.27,0,0,1-.27-.27v-4.88l-1.4,1.1a.26.26,0,0,1-.19,0,.32.32,0,0,1-.19-.1Z" style="fill: rgb(69, 90, 100); transform-origin: 265.123px 281.44px;" id="elf3r7soizk5h" class="animable"></path><path d="M268.25,283.78a.48.48,0,0,1,.12-.26.38.38,0,0,1,.3-.12h.86a.25.25,0,0,1,.16.06.2.2,0,0,1,.06.15.15.15,0,0,1,0,.07l-.65,1.64a.8.8,0,0,1-.13.21.39.39,0,0,1-.3.11h-.44a.24.24,0,0,1-.22-.22v0Z" style="fill: rgb(69, 90, 100); transform-origin: 268.882px 284.52px;" id="elryxll2r6rri" class="animable"></path><path d="M276.14,281a1,1,0,0,0,.38-.48,1.33,1.33,0,0,0,.09-.45,1,1,0,0,0-.25-.69,1,1,0,0,0-.82-.28,1.1,1.1,0,0,0-.8.26,1.74,1.74,0,0,0-.36.69.3.3,0,0,1-.11.19.32.32,0,0,1-.18.06h-.78a.31.31,0,0,1-.2-.07.22.22,0,0,1-.07-.19,2.19,2.19,0,0,1,.23-.84,2.28,2.28,0,0,1,.53-.7,2.74,2.74,0,0,1,2.81-.43,2.28,2.28,0,0,1,.75.52,2.11,2.11,0,0,1,.44.71,2.38,2.38,0,0,1,.14.78,3.59,3.59,0,0,1,0,.47,1.32,1.32,0,0,1-.14.44,2,2,0,0,1-.31.46,3.6,3.6,0,0,1-.56.52l-1.82,1.67h2.74a.26.26,0,0,1,.19.08.27.27,0,0,1,.08.19v.7a.27.27,0,0,1-.08.19.26.26,0,0,1-.19.08h-4.61a.27.27,0,0,1-.27-.27V284a.48.48,0,0,1,.1-.29,1,1,0,0,1,.17-.18Z" style="fill: rgb(69, 90, 100); transform-origin: 275.545px 281.37px;" id="elwixq907ktt" class="animable"></path><path d="M279.18,283.78a.48.48,0,0,1,.12-.26.38.38,0,0,1,.3-.12h.86a.2.2,0,0,1,.15.06.18.18,0,0,1,.07.15s0,.05,0,.07l-.65,1.64a.85.85,0,0,1-.14.21.37.37,0,0,1-.29.11h-.44a.21.21,0,0,1-.16-.07.2.2,0,0,1-.06-.15v0Z" style="fill: rgb(69, 90, 100); transform-origin: 279.81px 284.52px;" id="el1eafca7iycf" class="animable"></path><path d="M288.69,278a.29.29,0,0,1,.19.08.27.27,0,0,1,.08.19v.7a.32.32,0,0,1-.08.2l-.14.17-1.44,1.52a3.23,3.23,0,0,1,.8.21,2.31,2.31,0,0,1,.62.41,1.73,1.73,0,0,1,.39.6,1.92,1.92,0,0,1,.14.77,2.11,2.11,0,0,1-.2.92,2,2,0,0,1-.56.67,2.62,2.62,0,0,1-.85.43,3.64,3.64,0,0,1-1.07.15,3.9,3.9,0,0,1-1.2-.17,2.87,2.87,0,0,1-.84-.42,1.77,1.77,0,0,1-.73-1.22.21.21,0,0,1,.07-.19.3.3,0,0,1,.2-.08h.78a.23.23,0,0,1,.16.06,1,1,0,0,1,.13.19,1.12,1.12,0,0,0,.16.22,1.09,1.09,0,0,0,.26.19,1.8,1.8,0,0,0,.41.13,3.45,3.45,0,0,0,.6.05,1.78,1.78,0,0,0,1-.24.79.79,0,0,0,.37-.69.69.69,0,0,0-.37-.64,2.25,2.25,0,0,0-1-.19h-.82a.27.27,0,0,1-.26-.26V281a.31.31,0,0,1,.07-.2,1.17,1.17,0,0,1,.15-.16l1.38-1.45h-2.73a.29.29,0,0,1-.19-.08.28.28,0,0,1-.07-.19v-.7a.26.26,0,0,1,.07-.19.29.29,0,0,1,.19-.08Z" style="fill: rgb(69, 90, 100); transform-origin: 286.524px 281.485px;" id="elv00ickp2fu" class="animable"></path><path d="M290.33,283.78a.48.48,0,0,1,.12-.26.38.38,0,0,1,.3-.12h.86a.25.25,0,0,1,.16.06.2.2,0,0,1,.06.15.15.15,0,0,1,0,.07l-.65,1.64a.8.8,0,0,1-.13.21.39.39,0,0,1-.3.11h-.44a.24.24,0,0,1-.22-.22v0Z" style="fill: rgb(69, 90, 100); transform-origin: 290.962px 284.52px;" id="elp6hlbj716ra" class="animable"></path><path d="M269.1,296.75a.22.22,0,0,1-.19-.08.25.25,0,0,1-.08-.18v-1.2h-3.06a.27.27,0,0,1-.27-.27v-.7a.48.48,0,0,1,.06-.24l.16-.22,3-3.78a.55.55,0,0,1,.4-.24h.76a.27.27,0,0,1,.26.26v4H271a.26.26,0,0,1,.19.07.29.29,0,0,1,.08.19v.7a.26.26,0,0,1-.08.19.27.27,0,0,1-.19.08h-.85v1.2a.27.27,0,0,1-.26.26Zm-.27-2.69v-2.12l-1.69,2.12Z" style="fill: rgb(69, 90, 100); transform-origin: 268.385px 293.315px;" id="elywbobmtkkp" class="animable"></path><path d="M272.23,295.64a.5.5,0,0,1,.12-.27.38.38,0,0,1,.3-.12h.86a.24.24,0,0,1,.22.22.17.17,0,0,1,0,.07l-.65,1.64a.73.73,0,0,1-.14.2.34.34,0,0,1-.29.11h-.44a.25.25,0,0,1-.16-.06.2.2,0,0,1-.06-.15v0Z" style="fill: rgb(69, 90, 100); transform-origin: 272.862px 296.371px;" id="elb7jg2ic0ivp" class="animable"></path><path d="M277.45,290.1a.25.25,0,0,1,.08-.18.24.24,0,0,1,.19-.08h3.71a.22.22,0,0,1,.19.08.25.25,0,0,1,.08.18v.71a.25.25,0,0,1-.08.18.22.22,0,0,1-.19.08h-2.77l-.11,1.27a1.47,1.47,0,0,1,.53-.13,3.56,3.56,0,0,1,.43,0,3.31,3.31,0,0,1,1,.15,2.23,2.23,0,0,1,.82.44,2,2,0,0,1,.55.71,2.35,2.35,0,0,1,.2,1,2.54,2.54,0,0,1-.21,1.08,2,2,0,0,1-.55.74,2.15,2.15,0,0,1-.82.43,3.73,3.73,0,0,1-1,.13,3.63,3.63,0,0,1-1.17-.16,2.23,2.23,0,0,1-.81-.43,1.8,1.8,0,0,1-.49-.62,1.87,1.87,0,0,1-.18-.74.23.23,0,0,1,.07-.19.29.29,0,0,1,.2-.07h.8a.27.27,0,0,1,.17.06.31.31,0,0,1,.11.18,1,1,0,0,0,.19.37.93.93,0,0,0,.3.22,1.07,1.07,0,0,0,.37.12,3.15,3.15,0,0,0,.44,0,1.35,1.35,0,0,0,.91-.31,1.05,1.05,0,0,0,.34-.84.93.93,0,0,0-.34-.74,1.41,1.41,0,0,0-.91-.31,1.86,1.86,0,0,0-.47.05,1.11,1.11,0,0,0-.28.1l-.2.11a.73.73,0,0,1-.23,0h-.91a.25.25,0,0,1-.18-.08.24.24,0,0,1-.08-.19Z" style="fill: rgb(69, 90, 100); transform-origin: 279.465px 293.365px;" id="elg1k2zj7wza5" class="animable"></path><path d="M284.25,295.25a.29.29,0,0,1,.19.08.26.26,0,0,1,.08.19v1a.27.27,0,0,1-.27.26h-.92a.24.24,0,0,1-.19-.08.25.25,0,0,1-.08-.18v-1a.26.26,0,0,1,.08-.19.27.27,0,0,1,.19-.08Z" style="fill: rgb(69, 90, 100); transform-origin: 283.79px 296.015px;" id="eltkc05j3ubug" class="animable"></path><path d="M286.83,295.25a.29.29,0,0,1,.19.08.25.25,0,0,1,.07.19v1a.24.24,0,0,1-.07.18.25.25,0,0,1-.19.08h-.92a.24.24,0,0,1-.19-.08.25.25,0,0,1-.08-.18v-1a.26.26,0,0,1,.08-.19.27.27,0,0,1,.19-.08Z" style="fill: rgb(69, 90, 100); transform-origin: 286.365px 296.015px;" id="elacd9vuaxj6i" class="animable"></path><path d="M289.41,295.25a.25.25,0,0,1,.18.08.22.22,0,0,1,.08.19v1a.27.27,0,0,1-.26.26h-.92a.22.22,0,0,1-.19-.08.25.25,0,0,1-.08-.18v-1a.27.27,0,0,1,.27-.27Z" style="fill: rgb(69, 90, 100); transform-origin: 288.945px 296.015px;" id="elccuhszogi0h" class="animable"></path></g></g><defs>     <filter id="active" height="200%">         <feMorphology in="SourceAlpha" result="DILATED" operator="dilate" radius="2"></feMorphology>                <feFlood flood-color="#32DFEC" flood-opacity="1" result="PINK"></feFlood>        <feComposite in="PINK" in2="DILATED" operator="in" result="OUTLINE"></feComposite>        <feMerge>            <feMergeNode in="OUTLINE"></feMergeNode>            <feMergeNode in="SourceGraphic"></feMergeNode>        </feMerge>    </filter>    <filter id="hover" height="200%">        <feMorphology in="SourceAlpha" result="DILATED" operator="dilate" radius="2"></feMorphology>                <feFlood flood-color="#ff0000" flood-opacity="0.5" result="PINK"></feFlood>        <feComposite in="PINK" in2="DILATED" operator="in" result="OUTLINE"></feComposite>        <feMerge>            <feMergeNode in="OUTLINE"></feMergeNode>            <feMergeNode in="SourceGraphic"></feMergeNode>        </feMerge>            <feColorMatrix type="matrix" values="0   0   0   0   0                0   1   0   0   0                0   0   0   0   0                0   0   0   1   0 "></feColorMatrix>    </filter></defs></svg>